<?xml version="1.0" standalone="no"?><!DOCTYPE svg PUBLIC "-//W3C//DTD SVG 1.1//EN" "http://www.w3.org/Graphics/SVG/1.1/DTD/svg11.dtd"><svg t="1692858305762" class="icon" viewBox="0 0 1024 1024" version="1.1" xmlns="http://www.w3.org/2000/svg" p-id="2751" xmlns:xlink="http://www.w3.org/1999/xlink" width="200" height="200"><path d="M835.428 986.08l-19.316-346.816a59.944 59.944 0 0 0-45.216-54.792l-82.992-20.888c-17.744-5.16-31.948-8.956-42.696-12.612l-36.596-18.044-0.116-0.056-7.384-3.64a34.296 34.296 0 0 1-19.136-30.768v-28.792c-16.116 14.96-34.74 28.42-56.016 38.216a36.216 36.216 0 0 1-29.972 0c-20.384-9.384-38.32-22.144-53.964-36.352v26.928a34.304 34.304 0 0 1-19.136 30.768l-5.436 2.684-2.288 1.128c-36.676 16.892-23.064 13.484-48.512 21.684-10.84 3.492-21.788 6.656-32.84 9.436l-80.708 20.316a59.936 59.936 0 0 0-45.216 54.792l-19.32 346.816a26.444 26.444 0 0 0 26.404 27.916h594.044a26.46 26.46 0 0 0 26.412-27.924z" fill="#3F3F3F" p-id="2752"></path><path d="M650.124 227.616c-21.38-6.168-52.7-23.68-70.704-73.14-1.216-3.34-5.604-4.048-7.748-1.212-14.04 18.556-58.952 66.424-145.78 61.496-23.728-1.348-41.816 4.952-54.172 13.932l-4.464 45.9c-7.316 68.78 15.76 137.736 64.328 186.984 17.924 18.176 39.344 34.776 64.404 46.312a36.216 36.216 0 0 0 29.972 0c25.06-11.536 46.48-28.136 64.404-46.312 48.568-49.248 71.644-118.204 64.328-186.984l-4.568-46.976z" fill="#F9D8B7" p-id="2753"></path><path d="M367.256 274.588l4.22-43.396a57.32 57.32 0 0 0-5.524-0.28c-31.228 0-56.54 25.316-56.54 56.54s25.316 56.54 56.54 56.54c1.428 0 2.828-0.108 4.228-0.212a235.792 235.792 0 0 1-2.924-69.192zM656.728 230.912c-2.116 0-4.196 0.136-6.252 0.364l4.212 43.312a235.824 235.824 0 0 1-2.916 69.156c1.636 0.144 3.284 0.252 4.956 0.252 31.228 0 56.54-25.316 56.54-56.54s-25.312-56.544-56.54-56.544z" fill="#F9D8B7" p-id="2754"></path><path d="M365.952 230.912c1.864 0 3.704 0.104 5.524 0.28l0.244-2.504c12.356-8.98 30.44-15.276 54.172-13.932 86.828 4.928 131.74-42.944 145.78-61.496 2.144-2.832 6.532-2.124 7.748 1.212 18.004 49.46 49.324 66.968 70.704 73.14l0.356 3.664a56.612 56.612 0 0 1 6.252-0.364c21.792 0 40.672 12.344 50.108 30.408 16.26-55.512 24.52-126.916-15.032-177.616-78.756-100.956-152.452-72.832-174.76-60.7-3.2 1.74-6.888 1.74-10.092 0-22.308-12.128-96-40.256-174.756 60.7-39.176 50.22-31.448 120.756-15.5 176.036 9.696-17.196 28.104-28.828 49.252-28.828zM695.744 328.308a56.296 56.296 0 0 1-39.016 15.684c-1.672 0-3.32-0.108-4.956-0.252-6.608 34.648-20.968 67.5-42.428 95.804 23.42 5.016 47.808 3.104 68.652-1.004 23.828-4.7 37.936-30.124 28.196-52.372-8.06-18.4-10.624-38.76-10.448-57.86zM370.176 343.76l0.004 0.02c-1.4 0.104-2.8 0.212-4.228 0.212a56.24 56.24 0 0 1-37.948-14.716c0.08 18.816-2.536 38.8-10.456 56.892-9.74 22.248 4.368 47.672 28.196 52.372 20.38 4.02 44.148 5.92 67.088 1.312-21.588-28.364-36.02-61.328-42.656-96.092z" fill="#E8B16D" p-id="2755"></path><path d="M422.888 529.232l-5.436 2.684-2.288 1.128c-2.072 0.956-3.964 1.836-5.736 2.668 24.196 29.068 60.608 47.608 101.384 47.608 41.116 0 77.784-18.844 101.972-48.324l-4.18-2.06-0.116-0.056-7.384-3.64a34.296 34.296 0 0 1-19.136-30.768v-28.792c-16.116 14.96-34.74 28.42-56.016 38.216a36.216 36.216 0 0 1-29.972 0c-20.384-9.384-38.32-22.144-53.964-36.352v26.928a34.28 34.28 0 0 1-19.128 30.76z" fill="#F9D8B7" p-id="2756"></path><path d="M608.256 615.792c23.844-10.22 41.232-34.728 53.412-59.736a393.468 393.468 0 0 1-16.46-5.084l-32.456-16.004c-21.02 25.576-51.432 43.124-86.012 47.292 16.204 22.344 43.364 49.884 81.516 33.532zM413.376 615.792c38.152 16.352 65.312-11.188 81.512-33.528-34.256-4.132-64.428-21.392-85.428-46.572-29.548 13.884-18.792 11.292-42.808 19.028-2.12 0.684-4.26 1.292-6.388 1.948 12.168 24.796 29.46 48.988 53.112 59.124z" fill="#E8E6E6" p-id="2757"></path><path d="M628.504 808.992l-48.492-188.584c-23.612-2.644-41.352-21.728-53.22-38.076-4.08 0.492-8.224 0.768-12.408 0.876l45.712 241.632a10.24 10.24 0 0 0 12.408 8.064l48.428-11.396a10.232 10.232 0 0 0 7.572-12.516zM442.696 620.296l-48.524 188.7a10.24 10.24 0 0 0 7.572 12.516l48.428 11.396a10.24 10.24 0 0 0 12.408-8.064l45.708-241.6a132.996 132.996 0 0 1-13.444-0.912c-11.692 16.1-29.072 34.872-52.148 37.964z" fill="#E8E6E6" p-id="2758"></path><path d="M717.844 1018.316a10 10 0 0 1-10-10V783.68a10 10 0 1 1 20 0v224.632a10 10 0 0 1-10 10.004zM306.156 1018.316a10 10 0 0 1-10-10V783.68a10 10 0 1 1 20 0v224.632a10 10 0 0 1-10 10.004z" fill="#231F20" p-id="2759"></path><path d="M809.024 1024H214.976a36.588 36.588 0 0 1-26.48-11.404 36.596 36.596 0 0 1-9.908-27.072l19.316-346.816a69.64 69.64 0 0 1 52.756-63.932l80.712-20.316a518.268 518.268 0 0 0 32.216-9.26c13.98-4.5 15.144-5.128 20.732-8.124 4.42-2.372 11.1-5.956 26.66-13.12l7.488-3.696a24.16 24.16 0 0 0 13.556-21.8v-26.928a10 10 0 0 1 16.72-7.4c16.296 14.8 33.596 26.464 51.42 34.668a26.18 26.18 0 0 0 21.612 0c18.58-8.556 36.544-20.824 53.392-36.46a10 10 0 1 1 16.804 7.332v28.792a24.16 24.16 0 0 0 13.556 21.8l43.504 21.452c7.232 2.432 16.3 5.016 26.756 7.996 4.656 1.328 9.624 2.74 14.908 4.276l82.636 20.792a69.628 69.628 0 0 1 52.756 63.932l19.316 346.816a36.584 36.584 0 0 1-9.908 27.072 36.596 36.596 0 0 1-26.472 11.4z m-357-531.136v5.596c0 16.996-9.468 32.224-24.712 39.736l-7.732 3.812c-15.24 7.024-21.596 10.436-25.804 12.692-6.752 3.624-8.924 4.664-24.056 9.536-11.26 3.628-22.52 6.864-33.464 9.616l-80.712 20.316a49.724 49.724 0 0 0-37.672 45.652L198.56 986.64a16.292 16.292 0 0 0 4.468 12.212A16.288 16.288 0 0 0 214.976 1004h594.048a16.288 16.288 0 0 0 11.948-5.148 16.288 16.288 0 0 0 4.468-12.212l-19.316-346.816a49.724 49.724 0 0 0-37.672-45.652l-82.988-20.888c-5.592-1.62-10.528-3.024-15.152-4.34-11.012-3.136-20.524-5.844-28.324-8.5a9.912 9.912 0 0 1-1.204-0.5l-44.096-21.744a44.032 44.032 0 0 1-24.712-39.74v-7.16c-13.432 10.444-27.44 19.04-41.832 25.668-12.008 5.528-26.34 5.524-38.34 0-13.644-6.28-26.96-14.352-39.78-24.104zM513.264 426.308c-12.584 0-24.04-4.448-31.436-12.204a10 10 0 1 1 14.468-13.804c3.536 3.704 10.04 6.008 16.968 6.008 6.924 0 13.428-2.304 16.972-6.008a9.988 9.988 0 0 1 14.136-0.324 9.992 9.992 0 0 1 0.324 14.136c-7.4 7.748-18.856 12.196-31.432 12.196zM547.432 281.576a10.004 10.004 0 0 1-4.708-18.832c6.056-3.22 15.2-5.068 25.092-5.068s19.036 1.848 25.088 5.068a10 10 0 1 1-9.392 17.66c-2.364-1.256-7.896-2.728-15.7-2.728-7.808 0-13.336 1.468-15.696 2.724a9.908 9.908 0 0 1-4.684 1.176zM478.584 281.576c-1.584 0-3.196-0.376-4.692-1.172-2.36-1.256-7.888-2.724-15.696-2.724-7.804 0-13.336 1.468-15.7 2.728a10 10 0 0 1-9.392-17.66c6.056-3.22 15.2-5.068 25.088-5.068 9.896 0 19.04 1.848 25.092 5.068a10 10 0 0 1-4.7 18.828zM459.824 320.996a12 12 0 0 1-12-12v-2.232a12 12 0 1 1 24 0v2.232a12 12 0 0 1-12 12zM566.704 322.7a12 12 0 0 1-12-12v-2.232a12 12 0 1 1 24 0v2.232a12 12 0 0 1-12 12z" fill="#231F20" p-id="2760"></path><path d="M510.972 521.112c-6.584 0-13.168-1.38-19.172-4.144-23.86-10.984-46.516-27.256-67.34-48.372-50.424-51.136-74.896-122.236-67.148-195.068l4.452-45.808a10 10 0 0 1 4.076-7.124c11.22-8.156 30.896-17.508 60.616-15.824 81.044 4.632 122.984-38.712 137.24-57.548a14.44 14.44 0 0 1 13.652-5.568 14.508 14.508 0 0 1 11.468 9.396c16.288 44.752 43.836 61.112 64.08 66.952a10.004 10.004 0 0 1 7.18 8.64l4.568 46.972c7.74 72.748-16.736 143.844-67.156 194.976-20.824 21.116-43.484 37.392-67.348 48.372a45.864 45.864 0 0 1-19.168 4.148zM381.216 234.364l-4.004 41.188c-7.124 66.94 15.292 132.148 61.492 179 19.12 19.388 39.8 34.276 61.46 44.248a26.144 26.144 0 0 0 21.608 0c21.664-9.972 42.348-24.856 61.468-44.248 46.196-46.844 68.612-112.056 61.5-178.908l-3.94-40.548c-22.268-8.056-49.508-26.5-67.264-68.28-20.456 23.556-67.008 62.5-148.212 57.928-20.804-1.172-35.104 4.108-44.108 9.62z" fill="#231F20" p-id="2761"></path><path d="M365.948 353.996c-36.692 0-66.54-29.848-66.54-66.54 0-36.688 29.848-66.54 66.54-66.54 2.12 0 4.248 0.108 6.5 0.328a9.996 9.996 0 0 1 8.98 10.92L377.208 275.56l-0.008 0.092a225.616 225.616 0 0 0 2.8 66.26 10 10 0 0 1-9.092 11.848c-1.784 0.128-3.352 0.236-4.96 0.236z m-5.496-112.76c-23.084 2.728-41.044 22.416-41.044 46.216 0 23.068 16.868 42.268 38.916 45.916a245.152 245.152 0 0 1-1.02-59.8l3.148-32.332z m6.804 33.352h0.04-0.04zM656.728 353.996c-1.964 0-3.9-0.12-5.82-0.288a10 10 0 0 1-8.956-11.836 225.496 225.496 0 0 0 2.792-66.224l-4.22-43.404a10 10 0 0 1 8.856-10.908 66.736 66.736 0 0 1 7.348-0.424c36.692 0 66.544 29.848 66.544 66.54-0.004 36.692-29.856 66.544-66.544 66.544z m4.756-112.84l3.156 32.464c2.108 19.812 1.76 39.916-1.04 59.868 22.416-3.332 39.668-22.708 39.668-46.036 0-24.056-18.348-43.908-41.784-46.296z" fill="#231F20" p-id="2762"></path><path d="M706.836 271.32c-3.692 0-7.12-2.048-8.86-5.368a46.44 46.44 0 0 0-41.248-25.04c-1.62 0-3.308 0.1-5.156 0.304a10.008 10.008 0 0 1-10.264-5.932c-22.364-7.956-49.884-26.36-67.776-68.464-20.456 23.556-67.008 62.5-148.212 57.928-21.08-1.196-35.448 4.24-44.432 9.824a9.996 9.996 0 0 1-10.392 6.58 46.332 46.332 0 0 0-4.552-0.232 46.628 46.628 0 0 0-40.54 23.74 10 10 0 1 1-18.32-2.14c-22.444-77.788-16.492-141.748 17.224-184.96C408.28-30.092 488.988 1.86 511.724 14.224c0.228 0.12 0.312 0.12 0.54 0 22.736-12.36 103.436-44.32 187.416 63.336 33.956 43.528 39.752 108.044 16.752 186.58a10 10 0 0 1-9.596 7.18z m-49.288-50.4a66.284 66.284 0 0 1 44.84 18.132c11.24-47.796 14.564-106.856-18.464-149.2C611.64-2.796 546.48 18.38 521.824 31.788a20.496 20.496 0 0 1-19.648 0C477.52 18.38 412.36-2.796 340.08 89.852c-32.876 42.144-29.696 100.848-18.692 148.24a66.592 66.592 0 0 1 44.044-17.176c0.132-0.108 0.268-0.216 0.412-0.316 11.22-8.156 30.896-17.508 60.616-15.824 81.044 4.632 122.984-38.712 137.24-57.548a14.44 14.44 0 0 1 13.652-5.568 14.508 14.508 0 0 1 11.468 9.396c16.288 44.756 43.836 61.112 64.08 66.952a10 10 0 0 1 4.648 2.912zM639.272 452.556c-11.26 0-21.96-1.08-32.024-3.236a10.004 10.004 0 0 1-5.872-15.82c20.188-26.624 34.22-58.308 40.576-91.632a9.972 9.972 0 0 1 10.696-8.088c1.344 0.12 2.704 0.212 4.084 0.212 11.984 0 23.388-4.584 32.108-12.916a10.004 10.004 0 0 1 16.908 7.324c-0.196 20.668 3.036 38.752 9.6 53.752 5.752 13.128 5.2 28.02-1.512 40.852a48.72 48.72 0 0 1-33.912 25.34c-14.212 2.812-27.8 4.212-40.652 4.212z m-12.432-20.516c15.032 1.296 31.504 0.184 49.22-3.312a28.816 28.816 0 0 0 20.056-14.988c3.884-7.428 4.22-16.016 0.916-23.564-5.588-12.772-9.124-27.248-10.56-43.212a66.088 66.088 0 0 1-26.608 6.956 241.976 241.976 0 0 1-33.024 78.12zM384.388 452.548c-12.84 0-26.404-1.4-40.584-4.196a48.724 48.724 0 0 1-33.912-25.344c-6.708-12.832-7.256-27.72-1.508-40.848 6.468-14.776 9.704-32.552 9.612-52.836a9.996 9.996 0 0 1 16.72-7.444 46.396 46.396 0 0 0 31.228 12.12 37.4 37.4 0 0 0 3.284-0.188 9.948 9.948 0 0 1 10.748 7.984l0.032 0.16c6.388 33.428 20.484 65.188 40.772 91.848a10.008 10.008 0 0 1-5.988 15.86c-9.592 1.92-19.748 2.884-30.404 2.884zM337.224 347.436c-1.46 15.776-4.98 30.096-10.516 42.74-3.304 7.544-2.972 16.132 0.912 23.564a28.816 28.816 0 0 0 20.06 14.988c17.028 3.36 32.944 4.508 47.5 3.432a241.832 241.832 0 0 1-33.096-78.28 66.088 66.088 0 0 1-24.86-6.444zM510.816 593.316c-42.224 0-81.98-18.668-109.072-51.208a10 10 0 0 1 3.436-15.452c1.788-0.84 3.7-1.732 5.796-2.7l7.488-3.692a24.16 24.16 0 0 0 13.556-21.8v-26.928a10 10 0 0 1 16.72-7.4c16.296 14.8 33.596 26.464 51.42 34.668a26.172 26.172 0 0 0 21.608 0c18.584-8.556 36.548-20.82 53.396-36.46a10 10 0 1 1 16.804 7.332v28.792a24.16 24.16 0 0 0 13.556 21.8l11.676 5.756a9.988 9.988 0 0 1 3.312 15.312c-27.096 33.032-67.084 51.98-109.696 51.98z m-84.856-54.452a121.508 121.508 0 0 0 84.856 34.448 121.36 121.36 0 0 0 85.644-35.228 44.028 44.028 0 0 1-24.484-39.624v-7.16c-13.436 10.444-27.444 19.044-41.836 25.668-12.008 5.528-26.336 5.524-38.336 0-13.644-6.28-26.96-14.356-39.78-24.104v5.596c0 16.996-9.468 32.224-24.712 39.736l-1.352 0.668z" fill="#231F20" p-id="2763"></path><path d="M585.332 630.852c-23.724 0-46.064-14.284-66.684-42.716a10 10 0 0 1 6.892-15.8c31.176-3.76 59.404-19.288 79.484-43.716a10.008 10.008 0 0 1 12.148-2.62l31.86 15.712c3.924 1.32 8.724 2.796 15.42 4.74a10 10 0 0 1 6.2 13.984c-16.132 33.124-35.804 54.84-58.464 64.548-9.124 3.916-18.088 5.868-26.856 5.868z m-40.268-41.796c19.144 20.992 38.236 26.544 59.252 17.544 15.808-6.772 30.208-21.704 42.904-44.448-1.908-0.6-3.628-1.164-5.232-1.712a10.184 10.184 0 0 1-1.204-0.5l-25.544-12.596c-18.968 20.652-43.276 35.06-70.176 41.712zM436.3 630.852c-8.772 0-17.732-1.952-26.864-5.868-22.508-9.644-42.072-31.148-58.148-63.908a10.008 10.008 0 0 1 6.024-13.96l2.628-0.796c1.22-0.364 2.436-0.728 3.644-1.12 13.988-4.504 15.152-5.128 20.752-8.132 3.724-1.996 9.348-5.012 20.868-10.428a10 10 0 0 1 11.932 2.648c20.052 24.04 48.084 39.328 78.944 43.048a9.992 9.992 0 0 1 6.896 15.796c-20.612 28.436-42.956 42.72-66.676 42.72zM374.68 562.628c12.632 22.48 26.944 37.248 42.632 43.976 21.024 9.004 40.112 3.452 59.256-17.544a141.28 141.28 0 0 1-69.616-41.084c-6.58 3.192-10.276 5.18-13.16 6.724-5.944 3.184-8.348 4.376-19.112 7.928z" fill="#231F20" p-id="2764"></path><path d="M570.192 843.172a20.36 20.36 0 0 1-11.064-3.264 20.356 20.356 0 0 1-8.856-13.208l-45.712-241.632a9.988 9.988 0 0 1 9.56-11.856 122.684 122.684 0 0 0 11.468-0.808 9.984 9.984 0 0 1 9.296 4.052c15.328 21.12 30.452 32.248 46.24 34.012a9.996 9.996 0 0 1 8.572 7.448l48.492 188.584c1.368 5.312 0.56 10.824-2.28 15.516s-7.344 7.972-12.684 9.228L574.8 842.64c-1.52 0.36-3.064 0.532-4.608 0.532z m-42.536-243.62l42.264 223.432 48.724-11.204 0.176-0.292-46.884-182.324c-15.624-3.592-30.232-13.36-44.28-29.612z" fill="#231F20" p-id="2765"></path><path d="M452.488 843.172c-1.544 0-3.088-0.176-4.608-0.532l-48.42-11.396a20.088 20.088 0 0 1-12.688-9.232 20.064 20.064 0 0 1-2.28-15.512l48.524-188.696a9.996 9.996 0 0 1 8.356-7.42c15.468-2.072 30.312-13.168 45.384-33.924a9.988 9.988 0 0 1 9.296-4.052 123.4 123.4 0 0 0 12.424 0.84 10 10 0 0 1 9.64 11.86l-45.708 241.6a20.312 20.312 0 0 1-8.86 13.208 20.376 20.376 0 0 1-11.06 3.256z m-1.684-214.264l-46.948 182.576 48.604 11.688 42.836-225.168c-14.124 16.792-28.796 26.98-44.492 30.904z" fill="#231F20" p-id="2766"></path></svg>