<?xml version="1.0" standalone="no"?><!DOCTYPE svg PUBLIC "-//W3C//DTD SVG 1.1//EN" "http://www.w3.org/Graphics/SVG/1.1/DTD/svg11.dtd"><svg t="1692858404407" class="icon" viewBox="0 0 1024 1024" version="1.1" xmlns="http://www.w3.org/2000/svg" p-id="3186" xmlns:xlink="http://www.w3.org/1999/xlink" width="200" height="200"><path d="M586.444 406.348l-169.22 53.844-47.832-248.636h77.916z" fill="#94D3CC" p-id="3187"></path><path d="M943.676 439.232c-21.48-63.68-76.4-118.72-204.444-81.496L252.516 512.6 155.892 395.808H77.976l109.116 262.652c15.076 33.92 53.22 51.112 88.62 39.936l638.344-201.496c24.152-7.684 37.72-33.652 29.62-57.668z" fill="#94D3CC" p-id="3188"></path><path d="M224.088 646.796L119.82 395.808H77.976l109.116 262.652c15.076 33.92 53.22 51.112 88.62 39.936l36.748-11.6c-35.332 11.016-73.332-6.16-88.372-40z" fill="#E8E6F4" p-id="3189"></path><path d="M253.7 713.804a84.908 84.908 0 0 1-77.58-50.472l-109.232-262.92a12 12 0 0 1 11.08-16.6h77.916c3.576 0 6.968 1.596 9.248 4.348l91.46 110.552 478.996-152.412c61.792-17.968 112.636-16.684 151.412 3.728 31.668 16.668 54.56 45.392 68.044 85.368 4.9 14.532 3.76 30.116-3.212 43.888a57.528 57.528 0 0 1-34.144 29.052L279.32 709.84c-8.496 2.684-17.12 3.964-25.62 3.964z m-157.744-305.996l102.216 246.048c12.488 28.096 44.316 42.436 73.924 33.096l638.344-201.496a33.696 33.696 0 0 0 19.98-17.016c4.04-7.984 4.712-16.996 1.884-25.376-26.284-77.932-90.112-102.768-189.724-73.812L256.156 524.036a12 12 0 0 1-12.884-3.788l-93.024-112.44H95.956z" fill="#44294F" p-id="3190"></path><path d="M639.136 520.708l112.468-35.5 7.224 22.888-112.468 35.5zM417.224 472.192a11.996 11.996 0 0 1-11.784-9.732L357.608 213.828a12.008 12.008 0 0 1 11.784-14.268h77.916a12 12 0 0 1 9.764 5.024l139.136 194.792a12.008 12.008 0 0 1-6.128 18.412l-169.22 53.84a12.04 12.04 0 0 1-3.636 0.564zM383.92 223.56l42.536 221.104 140.644-44.752-125.968-176.352H383.92z" fill="#44294F" p-id="3191"></path><path d="M417.52 271.228l23.568-4.532 6.592 34.26-23.568 4.532zM429.944 335.788l23.568-4.536 12.42 64.568-23.568 4.532z" fill="#44294F" p-id="3192"></path><path d="M876.676 358.328l-107.072 35.54a33.6 33.6 0 0 0 21.304 63.732l141.336-44.944c-12.132-22.636-29.924-42.272-55.568-54.328z" fill="#FCC800" p-id="3193"></path><path d="M780.356 471.324c-7.024 0-14.032-1.648-20.508-4.916a45.308 45.308 0 0 1-22.788-26.46c-7.796-23.684 5.08-49.46 28.696-57.452l107.14-35.56a12.008 12.008 0 0 1 8.884 0.528c25.852 12.156 46.392 32.18 61.04 59.52a12.008 12.008 0 0 1-6.94 17.104l-141.332 44.944a45.156 45.156 0 0 1-14.192 2.292z m95.404-100.048l-102.376 33.98c-11.12 3.764-17.22 15.972-13.524 27.192a21.46 21.46 0 0 0 10.792 12.532 21.464 21.464 0 0 0 16.496 1.224l126.932-40.364c-10.324-15-23.16-26.584-38.32-34.564z" fill="#44294F" p-id="3194"></path><path d="M675.108 448.828m-21.94 0a21.94 21.94 0 1 0 43.88 0 21.94 21.94 0 1 0-43.88 0Z" fill="#8479B9" p-id="3195"></path><path d="M558.232 486.288m-21.94 0a21.94 21.94 0 1 0 43.88 0 21.94 21.94 0 1 0-43.88 0Z" fill="#8479B9" p-id="3196"></path><path d="M441.356 523.744m-21.94 0a21.94 21.94 0 1 0 43.88 0 21.94 21.94 0 1 0-43.88 0Z" fill="#8479B9" p-id="3197"></path><path d="M324.48 561.204m-21.94 0a21.94 21.94 0 1 0 43.88 0 21.94 21.94 0 1 0-43.88 0Z" fill="#8479B9" p-id="3198"></path><path d="M675.108 482.768c-18.716 0-33.94-15.228-33.94-33.94s15.228-33.94 33.94-33.94 33.94 15.224 33.94 33.94-15.224 33.94-33.94 33.94z m0-43.88a9.948 9.948 0 0 0-9.94 9.94 9.948 9.948 0 0 0 9.94 9.94 9.952 9.952 0 0 0 9.94-9.94 9.952 9.952 0 0 0-9.94-9.94zM558.232 520.228c-18.716 0-33.94-15.228-33.94-33.94s15.228-33.94 33.94-33.94 33.94 15.228 33.94 33.94-15.224 33.94-33.94 33.94z m0-43.884c-5.484 0-9.94 4.46-9.94 9.94s4.46 9.94 9.94 9.94c5.48 0 9.94-4.46 9.94-9.94s-4.46-9.94-9.94-9.94zM441.356 557.688c-18.716 0-33.94-15.228-33.94-33.94s15.228-33.94 33.94-33.94 33.94 15.228 33.94 33.94-15.224 33.94-33.94 33.94z m0-43.884c-5.484 0-9.94 4.46-9.94 9.94s4.46 9.94 9.94 9.94c5.48 0 9.94-4.46 9.94-9.94s-4.46-9.94-9.94-9.94zM324.484 595.144c-18.716 0-33.94-15.224-33.94-33.94s15.228-33.94 33.94-33.94 33.94 15.228 33.94 33.94-15.228 33.94-33.94 33.94z m0-43.88a9.948 9.948 0 0 0-9.94 9.94 9.952 9.952 0 0 0 9.94 9.94 9.952 9.952 0 0 0 9.94-9.94 9.956 9.956 0 0 0-9.94-9.94z" fill="#44294F" p-id="3199"></path><path d="M586.432 539.6l-139.124 45.76v227.084h77.916l92.22-240.284c7.516-19.588-11.084-39.112-31.012-32.56z" fill="#94D3CC" p-id="3200"></path><path d="M525.224 824.44h-77.916a12 12 0 0 1-12-12v-227.08a12 12 0 0 1 8.248-11.4l139.124-45.76a36.604 36.604 0 0 1 38.236 9.6 36.584 36.584 0 0 1 7.728 38.656l-92.22 240.284a11.988 11.988 0 0 1-11.2 7.7z m-65.916-24h57.668l89.264-232.584a12.612 12.612 0 0 0-2.7-13.504 12.62 12.62 0 0 0-13.356-3.356l-130.876 43.048v206.396z" fill="#44294F" p-id="3201"></path><path d="M484.064 752.108l31.1-81.056 22.408 8.6-31.1 81.052z" fill="#44294F" p-id="3202"></path><path d="M529.188 634.54l14.752-38.448 22.404 8.6-14.748 38.44z" fill="#44294F" p-id="3203"></path></svg>