<?xml version="1.0" standalone="no"?><!DOCTYPE svg PUBLIC "-//W3C//DTD SVG 1.1//EN" "http://www.w3.org/Graphics/SVG/1.1/DTD/svg11.dtd"><svg t="1692859855399" class="icon" viewBox="0 0 1024 1024" version="1.1" xmlns="http://www.w3.org/2000/svg" p-id="22757" xmlns:xlink="http://www.w3.org/1999/xlink" width="200" height="200"><path d="M945.230769 236.307692h78.769231v78.769231h-78.769231zM945.230769 157.538462h78.769231v78.76923h-78.769231zM866.461538 236.307692h78.769231v78.769231h-78.769231z" fill="#1E2028" p-id="22758"></path><path d="M866.461538 157.538462h78.769231v78.76923h-78.769231z" fill="#FF9343" p-id="22759"></path><path d="M866.461538 78.769231h78.769231v78.769231h-78.769231zM787.692308 472.615385h78.76923v78.76923h-78.76923zM787.692308 393.846154h78.76923v78.769231h-78.76923zM787.692308 315.076923h78.76923v78.769231h-78.76923z" fill="#1E2028" p-id="22760"></path><path d="M787.692308 236.307692h78.76923v78.769231h-78.76923z" fill="#FF9343" p-id="22761"></path><path d="M787.692308 157.538462h78.76923v78.76923h-78.76923zM787.692308 78.769231h78.76923v78.769231h-78.76923z" fill="#FFDD4D" p-id="22762"></path><path d="M787.692308 0h78.76923v78.769231h-78.76923zM708.923077 551.384615h78.769231v78.769231h-78.769231z" fill="#1E2028" p-id="22763"></path><path d="M708.923077 472.615385h78.769231v78.76923h-78.769231zM708.923077 393.846154h78.769231v78.769231h-78.769231z" fill="#AF1441" p-id="22764"></path><path d="M708.923077 315.076923h78.769231v78.769231h-78.769231z" fill="#FF1A51" p-id="22765"></path><path d="M708.923077 236.307692h78.769231v78.769231h-78.769231z" fill="#1E2028" p-id="22766"></path><path d="M708.923077 157.538462h78.769231v78.76923h-78.769231z" fill="#FFDD4D" p-id="22767"></path><path d="M708.923077 78.769231h78.769231v78.769231h-78.769231zM708.923077 0h78.769231v78.769231h-78.769231zM630.153846 630.153846h78.769231v78.769231h-78.769231z" fill="#1E2028" p-id="22768"></path><path d="M630.153846 551.384615h78.769231v78.769231h-78.769231z" fill="#AF1441" p-id="22769"></path><path d="M630.153846 472.615385h78.769231v78.76923h-78.769231zM630.153846 393.846154h78.769231v78.769231h-78.769231zM630.153846 315.076923h78.769231v78.769231h-78.769231zM630.153846 236.307692h78.769231v78.769231h-78.769231z" fill="#FF1A51" p-id="22770"></path><path d="M630.153846 157.538462h78.769231v78.76923h-78.769231zM551.384615 708.923077h78.769231v78.769231h-78.769231z" fill="#1E2028" p-id="22771"></path><path d="M551.384615 630.153846h78.769231v78.769231h-78.769231z" fill="#AF1441" p-id="22772"></path><path d="M551.384615 551.384615h78.769231v78.769231h-78.769231zM551.384615 472.615385h78.769231v78.76923h-78.769231zM551.384615 393.846154h78.769231v78.769231h-78.769231zM551.384615 315.076923h78.769231v78.769231h-78.769231z" fill="#FF1A51" p-id="22773"></path><path d="M551.384615 236.307692h78.769231v78.769231h-78.769231z" fill="#F4608A" p-id="22774"></path><path d="M551.384615 157.538462h78.769231v78.76923h-78.769231zM472.615385 787.692308h78.76923v78.76923h-78.76923z" fill="#1E2028" p-id="22775"></path><path d="M472.615385 708.923077h78.76923v78.769231h-78.76923z" fill="#AF1441" p-id="22776"></path><path d="M472.615385 630.153846h78.76923v78.769231h-78.76923zM472.615385 551.384615h78.76923v78.769231h-78.76923zM472.615385 472.615385h78.76923v78.76923h-78.76923zM472.615385 393.846154h78.76923v78.769231h-78.76923z" fill="#FF1A51" p-id="22777"></path><path d="M472.615385 315.076923h78.76923v78.769231h-78.76923z" fill="#FFFFFF" p-id="22778"></path><path d="M472.615385 236.307692h78.76923v78.769231h-78.76923z" fill="#F4608A" p-id="22779"></path><path d="M472.615385 157.538462h78.76923v78.76923h-78.76923zM393.846154 787.692308h78.769231v78.76923h-78.769231z" fill="#1E2028" p-id="22780"></path><path d="M393.846154 708.923077h78.769231v78.769231h-78.769231z" fill="#AF1441" p-id="22781"></path><path d="M393.846154 630.153846h78.769231v78.769231h-78.769231zM393.846154 551.384615h78.769231v78.769231h-78.769231zM393.846154 472.615385h78.769231v78.76923h-78.769231z" fill="#FF1A51" p-id="22782"></path><path d="M393.846154 393.846154h78.769231v78.769231h-78.769231z" fill="#FFFFFF" p-id="22783"></path><path d="M393.846154 315.076923h78.769231v78.769231h-78.769231z" fill="#F4608A" p-id="22784"></path><path d="M393.846154 236.307692h78.769231v78.769231h-78.769231zM315.076923 787.692308h78.769231v78.76923h-78.769231z" fill="#1E2028" p-id="22785"></path><path d="M315.076923 708.923077h78.769231v78.769231h-78.769231zM315.076923 630.153846h78.769231v78.769231h-78.769231zM315.076923 551.384615h78.769231v78.769231h-78.769231z" fill="#FF1A51" p-id="22786"></path><path d="M315.076923 472.615385h78.769231v78.76923h-78.769231z" fill="#FFFFFF" p-id="22787"></path><path d="M315.076923 393.846154h78.769231v78.769231h-78.769231z" fill="#F4608A" p-id="22788"></path><path d="M315.076923 315.076923h78.769231v78.769231h-78.769231zM236.307692 945.230769h78.769231v78.769231h-78.769231zM236.307692 866.461538h78.769231v78.769231h-78.769231z" fill="#1E2028" p-id="22789"></path><path d="M236.307692 787.692308h78.769231v78.76923h-78.769231z" fill="#FF9343" p-id="22790"></path><path d="M236.307692 708.923077h78.769231v78.769231h-78.769231z" fill="#1E2028" p-id="22791"></path><path d="M236.307692 630.153846h78.769231v78.769231h-78.769231z" fill="#FF1A51" p-id="22792"></path><path d="M236.307692 551.384615h78.769231v78.769231h-78.769231zM236.307692 472.615385h78.769231v78.76923h-78.769231z" fill="#F4608A" p-id="22793"></path><path d="M236.307692 393.846154h78.769231v78.769231h-78.769231zM157.538462 945.230769h78.76923v78.769231H157.538462z" fill="#1E2028" p-id="22794"></path><path d="M157.538462 866.461538h78.76923v78.769231H157.538462z" fill="#FF9343" p-id="22795"></path><path d="M157.538462 787.692308h78.76923v78.76923H157.538462zM157.538462 708.923077h78.76923v78.769231H157.538462z" fill="#FFDD4D" p-id="22796"></path><path d="M157.538462 630.153846h78.76923v78.769231H157.538462zM157.538462 551.384615h78.76923v78.769231H157.538462zM157.538462 472.615385h78.76923v78.76923H157.538462zM78.769231 866.461538h78.769231v78.769231H78.769231z" fill="#1E2028" p-id="22797"></path><path d="M78.769231 787.692308h78.769231v78.76923H78.769231z" fill="#FFDD4D" p-id="22798"></path><path d="M78.769231 708.923077h78.769231v78.769231H78.769231zM0 787.692308h78.769231v78.76923H0zM0 708.923077h78.769231v78.769231H0z" fill="#1E2028" p-id="22799"></path></svg>