<?xml version="1.0" standalone="no"?><!DOCTYPE svg PUBLIC "-//W3C//DTD SVG 1.1//EN" "http://www.w3.org/Graphics/SVG/1.1/DTD/svg11.dtd"><svg t="1692858650044" class="icon" viewBox="0 0 1024 1024" version="1.1" xmlns="http://www.w3.org/2000/svg" p-id="2751" xmlns:xlink="http://www.w3.org/1999/xlink" width="200" height="200"><path d="M829.701518 986.568292l-18.971852-340.673338a58.87554 58.87554 0 0 0-44.415653-53.81958l-18.639854-4.691963-3.047976 10.859915a16.323872 16.323872 0 0 1-20.059844 11.275912l-97.515238-27.339786a16.319873 16.319873 0 0 1-11.271912-20.059844l4.015969-14.323888-13.007899-6.41195-7.255943-3.575972a33.699737 33.699737 0 0 1-18.795853-30.223764v-17.559862c-20.851837 13.575894-44.73965 21.659831-70.075453 21.65983-24.26781 0-47.183631-7.443942-67.395473-19.991843v15.891875a33.699737 33.699737 0 0 1-18.795853 30.223764l-5.343958 2.63598-19.23985 9.483926 3.419973 12.191904a16.319873 16.319873 0 0 1-11.275912 20.059844l-97.515238 27.339786a16.319873 16.319873 0 0 1-20.059843-11.275912l-2.719979-9.703924-14.04389 3.535972a58.87554 58.87554 0 0 0-44.415653 53.81958l-18.975852 340.677338a25.975797 25.975797 0 0 0 25.935797 27.419786h583.527442a25.979797 25.979797 0 0 0 25.939797-27.423786z" fill="#E8E6E6" p-id="2752"></path><path d="M403.304849 562.119608l-5.027961-17.931859a16.319873 16.319873 0 0 0-20.059843-11.275912l-97.515238 27.335786a16.319873 16.319873 0 0 0-11.275912 20.059843l5.027961 17.93186a16.319873 16.319873 0 0 0 20.059843 11.275912l97.515238-27.335786a16.319873 16.319873 0 0 0 11.275912-20.059844zM615.775189 562.119608l5.027961-17.931859a16.319873 16.319873 0 0 1 20.059843-11.275912l97.515238 27.335786a16.319873 16.319873 0 0 1 11.275912 20.059843l-5.02796 17.93186a16.319873 16.319873 0 0 1-20.059844 11.275912l-97.515238-27.335786a16.319873 16.319873 0 0 1-11.275912-20.059844z" fill="#FCBD4C" p-id="2753"></path><path d="M582.267451 649.274928l44.74365-67.115476a16.311873 16.311873 0 0 1-11.231912-20.043844l4.015969-14.323888-13.007899-6.41195-7.251943-3.575972a33.731736 33.731736 0 0 1-8.011937-5.539956l-66.999477 79.979375 57.743549 37.031711zM396.048906 580.351466L442.000547 649.274928l57.747549-37.031711-67.127476-80.127374a33.579738 33.579738 0 0 1-8.151936 5.687955l-5.343958 2.63598-19.23985 9.483926 3.415973 12.191904c2.007984 7.155944-1.191991 14.531886-7.251943 18.235858z" fill="#E8E6E6" p-id="2754"></path><path d="M533.77183 660.374841a40.815681 40.815681 0 0 1-44.471653-0.016l-25.871798 275.833845a11.599909 11.599909 0 0 0 3.331974 9.423926l36.575715 36.575715a11.599909 11.599909 0 0 0 16.403872 0l36.571714-36.575715a11.591909 11.591909 0 0 0 3.331974-9.423926l-25.871798-275.817845z" fill="#3F3F3F" p-id="2755"></path><path d="M580.735463 490.024172c-20.851837 13.575894-44.735651 21.659831-70.075453 21.65983-24.26781 0-47.183631-7.443942-67.395473-19.991843v15.891875a33.667737 33.667737 0 0 1-10.643917 24.531809l67.127476 80.127374h24.771806l67.003477-79.975375a33.679737 33.679737 0 0 1-10.783916-24.683808v-17.559862zM657.242865 253.666018v95.667253c0 7.487942-0.575996 14.987883-1.671987 22.427825 2.143983 0.255998 4.311966 0.447997 6.523949 0.447996 32.811744 0 59.415536-26.599792 59.415536-59.415536 0-34.827728-29.823767-61.991516-64.267498-59.127538zM364.073156 349.333271V253.586019c-1.599988-0.131999-3.215975-0.203998-4.851962-0.203999-32.815744 0-59.415536 26.599792-59.415536 59.415536s26.599792 59.415536 59.415536 59.415536a54.799572 54.799572 0 0 0 6.523949-0.447996 153.502801 153.502801 0 0 1-1.671987-22.431825z" fill="#F9D8B7" p-id="2756"></path><path d="M513.075992 266.19392c-61.903516 0-115.911094-15.835876-144.834869-39.359692h-4.171967v122.495043c0 80.62337 65.963485 162.350732 146.586854 162.350731s146.582855-81.731361 146.582855-162.350731V227.346224c-29.075773 23.235818-82.711354 38.847697-144.162873 38.847696z" fill="#F9D8B7" p-id="2757"></path><path d="M331.401411 218.91029a246.398075 246.398075 0 0 0-7.455942 46.151639 59.055539 59.055539 0 0 1 40.123687-11.47591V226.838228h-13.995891a26.035797 26.035797 0 0 1-18.671854-7.927938zM696.570558 264.525933a245.958078 245.958078 0 0 0-8.047937-47.979625c-4.783963 6.235951-12.283904 10.29192-20.699838 10.29192h-9.907923c-0.223998 0.179999-0.479996 0.351997-0.703994 0.531996l0.027999-0.02v26.319794c14.591886-1.215991 28.319779 2.999977 39.331693 10.855915z" fill="#E8B16D" p-id="2758"></path><path d="M524.519902 612.243217h-24.771806l-29.103773 18.663854c2.58398 20.251842 19.963844 36.051718 40.891681 36.051718 21.167835 0 38.731697-16.159874 40.999679-36.751712l-28.015781-17.96386zM368.241123 226.838228c28.923774 23.519816 82.935352 39.359693 144.834869 39.359692 61.903516 0 115.911094-15.835876 144.838868-39.359692H368.241123z" fill="#3F3F3F" p-id="2759"></path><path d="M724.806337 120.107062C703.038508 77.559394 638.239014 10.003922 512 10.003922S320.957493 77.559394 299.193663 120.107062c-17.159866 33.543738 7.323943 61.815517 24.775806 76.495402v-2.695979c0-14.359888 11.747908-26.107796 26.107796-26.107796h317.749518c14.359888 0 26.107796 11.747908 26.107796 26.107796v6.823947c0 0.247998-0.032 0.487996-0.04 0.735994 16.775869-12.511902 50.235608-43.58366 30.911758-81.359364z" fill="#E8E6E6" p-id="2760"></path><path d="M470.676323 94.987258c0-7.947938 2.283982-15.34388 6.171952-21.647831h-76.031406c-3.163975 0-5.223959 3.331974-3.807971 6.159952l11.487911 22.97182c0.719994 1.443989 2.195983 2.351982 3.80797 2.351982h18.351856c1.611987 0 3.087976 0.911993 3.807971 2.351982l5.519957 11.035913c0.719994 1.443989 2.195983 2.351982 3.80797 2.351982h35.79572a41.047679 41.047679 0 0 1-8.91193-25.5758zM623.187131 73.343427h-76.031406a41.095679 41.095679 0 0 1-2.739978 47.231631h35.79972c1.611987 0 3.087976-0.911993 3.80797-2.351982l5.519957-11.035913c0.719994-1.443989 2.195983-2.351982 3.80797-2.351982h18.351857c1.611987 0 3.087976-0.911993 3.80797-2.351982l11.487911-22.97182a4.263967 4.263967 0 0 0-3.811971-6.167952z" fill="#FCBD4C" p-id="2761"></path><path d="M512 94.987258m-41.323677 0a41.323677 41.323677 0 1 0 82.647354 0 41.323677 41.323677 0 1 0-82.647354 0Z" fill="#F9D498" p-id="2762"></path><path d="M667.822783 226.838228H350.077265c-14.359888 0-26.107796-11.747908-26.107796-26.107796v-6.823947c0-14.359888 11.747908-26.107796 26.107796-26.107796h317.749518c14.359888 0 26.107796 11.747908 26.107796 26.107796v6.823947c-0.004 14.359888-11.751908 26.107796-26.111796 26.107796z" fill="#FCBD4C" p-id="2763"></path><path d="M384.808994 167.798689h51.563597v59.035539H384.808994zM486.216201 167.798689h51.563598v59.035539h-51.563598zM587.627409 167.798689h51.563597v59.035539h-51.563597z" fill="#F9D498" p-id="2764"></path><path d="M512 437.496582a52.587589 52.587589 0 0 1-43.631659-23.195819 9.995922 9.995922 0 1 1 16.57187-11.195912c6.087952 9.01193 16.203873 14.391888 27.063789 14.391887s20.971836-5.379958 27.063789-14.391887a9.999922 9.999922 0 1 1 16.57187 11.195912 52.615589 52.615589 0 0 1-43.639659 23.195819zM461.504394 347.825283a11.999906 11.999906 0 0 1-11.999906-11.999907v-2.175983a11.999906 11.999906 0 1 1 23.999813 0v2.175983a11.999906 11.999906 0 0 1-11.999907 11.999907zM565.81558 349.49327a11.999906 11.999906 0 0 1-11.999907-11.999907v-2.175983a11.999906 11.999906 0 1 1 23.999813 0v2.175983a11.999906 11.999906 0 0 1-11.999906 11.999907zM585.987422 309.361583a9.959922 9.959922 0 0 1-4.687963-1.175991c-2.495981-1.32399-8.215936-2.663979-15.37188-2.663979s-12.875899 1.33999-15.37188 2.663979a9.999922 9.999922 0 0 1-9.391927-17.655862c5.979953-3.183975 15.007883-5.007961 24.759807-5.007961s18.779853 1.823986 24.759806 5.007961a9.999922 9.999922 0 0 1-4.695963 18.831853zM478.128265 309.361583a9.959922 9.959922 0 0 1-4.687964-1.175991c-2.495981-1.32399-8.215936-2.663979-15.37188-2.663979s-12.875899 1.33999-15.37188 2.663979a9.999922 9.999922 0 0 1-9.391926-17.655862c5.979953-3.183975 15.007883-5.007961 24.759806-5.007961s18.779853 1.823986 24.759807 5.007961a9.999922 9.999922 0 0 1-4.695963 18.831853zM714.20242 1018.408044a9.999922 9.999922 0 0 1-9.999922-9.999922V787.753846a9.999922 9.999922 0 1 1 19.999844 0v220.654276a9.999922 9.999922 0 0 1-9.999922 9.999922zM309.79758 1018.408044a9.999922 9.999922 0 0 1-9.999922-9.999922V787.753846a9.999922 9.999922 0 1 1 19.999844 0v220.654276a9.999922 9.999922 0 0 1-9.999922 9.999922z" fill="#231F20" p-id="2765"></path><path d="M803.761721 1023.988H220.238279c-9.843923 0-19.371849-4.099968-26.135795-11.251912s-10.331919-16.891868-9.783924-26.719791l18.975852-340.677339c1.687987-30.263764 22.567824-55.567566 51.955594-62.963508l14.04789-3.535972a10.015922 10.015922 0 0 1 12.071906 6.999945l2.719979 9.703924c0.447997 1.591988 1.503988 2.927977 2.975976 3.755971 1.463989 0.823994 3.159975 1.039992 4.751963 0.583995l97.519238-27.335786a6.35995 6.35995 0 0 0 4.347966-7.73194l-3.419973-12.191904a9.999922 9.999922 0 0 1 5.207959-11.671909l24.583808-12.119905a23.539816 23.539816 0 0 0 13.219897-21.251834v-15.891876a10.003922 10.003922 0 0 1 15.271881-8.495934c19.759846 12.267904 40.663682 18.487856 62.123514 18.487856 22.135827 0 44.483652-6.927946 64.619496-20.039844a10.019922 10.019922 0 0 1 10.22392-0.411997 9.991922 9.991922 0 0 1 5.235959 8.787932v17.559863a23.539816 23.539816 0 0 0 13.215897 21.251834l20.259841 9.987922a9.999922 9.999922 0 0 1 5.20796 11.667908l-4.015969 14.327888a6.35995 6.35995 0 0 0 4.347966 7.73194l97.511238 27.335786c1.595988 0.451996 3.287974 0.239998 4.755963-0.583995 1.467989-0.827994 2.52798-2.159983 2.971977-3.755971l3.047976-10.863915a10.003922 10.003922 0 0 1 12.071906-6.995945l18.639854 4.691963a68.575464 68.575464 0 0 1 51.959594 62.963508l18.971852 340.673339a36.131718 36.131718 0 0 1-9.775924 26.719791 36.171717 36.171717 0 0 1-26.159795 11.259912zM264.733932 600.611308l-4.599964 1.159991a48.65962 48.65962 0 0 0-36.871712 44.675651l-18.975852 340.677338a15.831876 15.831876 0 0 0 4.343966 11.867907 15.831876 15.831876 0 0 0 11.607909 4.995961h583.527442a15.819876 15.819876 0 0 0 11.611909-4.999961 15.827876 15.827876 0 0 0 4.339966-11.863907v-0.004l-18.971852-340.673338a48.66362 48.66362 0 0 0-36.875712-44.675651l-9.199928-2.315982-0.415997 1.487988a26.079796 26.079796 0 0 1-12.431902 15.787877 26.159796 26.159796 0 0 1-19.955845 2.411981l-97.511238-27.335786c-13.947891-3.915969-22.115827-18.443856-18.203858-32.391747l1.771987-6.327951-12.8119-6.315951a43.419661 43.419661 0 0 1-24.37181-39.191693v-0.351998c-19.17585 9.495926-39.65569 14.451887-60.079531 14.451887-19.415848 0-38.987695-4.527965-57.407551-13.195897a43.399661 43.399661 0 0 1-24.36381 38.283701l-17.135866 8.447934 1.179991 4.195968a26.311794 26.311794 0 0 1-18.203858 32.391747l-97.519238 27.335786a26.099796 26.099796 0 0 1-19.951844-2.411981 26.095796 26.095796 0 0 1-12.431903-15.787877l-0.091999-0.327997z" fill="#231F20" p-id="2766"></path><path d="M663.110819 768.165999h-64.139498a9.999922 9.999922 0 1 1 0-19.999844h64.139498a9.999922 9.999922 0 1 1 0 19.999844zM426.964664 768.165999H362.825165a9.999922 9.999922 0 1 1 0-19.999844h64.139499a9.999922 9.999922 0 1 1 0 19.999844zM290.109734 622.12714a28.18378 28.18378 0 0 1-13.831892-3.651972 28.095781 28.095781 0 0 1-13.379896-16.991867l-5.027961-17.93586c-4.207967-15.003883 4.583964-30.639761 19.587847-34.851728l97.519238-27.335786a28.067781 28.067781 0 0 1 21.467833 2.59198 28.091781 28.091781 0 0 1 13.383895 16.991867l5.027961 17.93586c4.203967 15.007883-4.583964 30.639761-19.587847 34.851727l-97.519238 27.335787a28.18778 28.18778 0 0 1-7.63994 1.059992z m92.475277-77.815392c-0.351997 0-0.727994 0.044-1.119991 0.155998l-97.519238 27.335787a4.327966 4.327966 0 0 0-2.959977 5.263959l5.027961 17.93186c0.411997 1.455989 1.447989 2.227983 2.031984 2.55198 0.579995 0.323997 1.767986 0.823994 3.231974 0.407996l97.519239-27.335786c2.227983-0.623995 3.583972-3.035976 2.959976-5.263959l-5.02796-17.93186a4.363966 4.363966 0 0 0-4.143968-3.115975zM728.966305 622.12714c-2.55598 0-5.11996-0.351997-7.64394-1.059992l-97.511239-27.335787a28.079781 28.079781 0 0 1-16.995867-13.379895 28.063781 28.063781 0 0 1-2.591979-21.475832l5.02796-17.92786c2.031984-7.251943 6.783947-13.287896 13.379896-16.995867s14.223889-4.623964 21.475832-2.59198l97.511238 27.335786a28.071781 28.071781 0 0 1 16.995867 13.383896 28.051781 28.051781 0 0 1 2.59198 21.471832l-5.027961 17.92786a28.075781 28.075781 0 0 1-13.379895 16.995867 28.14378 28.14378 0 0 1-13.831892 3.651972z m-92.467278-77.815392c-0.939993 0-1.687987 0.323997-2.111983 0.563995a4.239967 4.239967 0 0 0-2.027984 2.55198l-5.027961 17.93186v0.004c-0.411997 1.455989 0.079999 2.647979 0.407997 3.231975 0.323997 0.583995 1.091991 1.619987 2.55598 2.031984l97.511238 27.335786a4.239967 4.239967 0 0 0 3.239975-0.407996 4.239967 4.239967 0 0 0 2.027984-2.55198l5.027961-17.93186a4.239967 4.239967 0 0 0-0.407997-3.235975 4.239967 4.239967 0 0 0-2.55598-2.031984l-97.511238-27.335787a4.175967 4.175967 0 0 0-1.127992-0.155998z m-20.723838 17.80786h0.04-0.04z" fill="#231F20" p-id="2767"></path><path d="M582.255451 659.274849c-1.851986 0-3.719971-0.511996-5.391958-1.583987l-57.747549-37.031711a10.007922 10.007922 0 0 1-2.263982-14.839884l66.999477-79.979375a9.999922 9.999922 0 0 1 14.467887-0.907993c1.711987 1.587988 3.603972 2.899977 5.627956 3.89997l20.259841 9.987921a9.999922 9.999922 0 0 1 5.20796 11.667909l-4.015969 14.327888a6.283951 6.283951 0 0 0 4.331966 7.72394 9.991922 9.991922 0 0 1 5.591957 15.167882l-44.747651 67.111475a9.951922 9.951922 0 0 1-8.319935 4.455965z m-42.775666-49.315614l39.915688 25.5958 33.583738-50.375607a26.291795 26.291795 0 0 1-6.831947-25.759798l1.771987-6.331951-12.8119-6.315951c-0.631995-0.311998-1.25599-0.639995-1.875986-0.979992l-53.75158 64.167499zM442.008547 659.274849a9.991922 9.991922 0 0 1-8.327935-4.451965l-45.947641-68.923461a9.991922 9.991922 0 0 1 3.107976-14.07989c2.415981-1.475988 3.583972-4.355966 2.839977-6.999946l-3.415973-12.195904a9.999922 9.999922 0 0 1 5.207959-11.667909l24.579808-12.119906a23.663815 23.663815 0 0 0 5.731956-4.007968 10.071921 10.071921 0 0 1 7.439941-2.691979c2.747979 0.159999 5.303959 1.447989 7.071945 3.559972l67.123476 80.127374a9.999922 9.999922 0 0 1-2.263983 14.839884l-57.747548 37.031711c-1.679987 1.067992-3.547972 1.579988-5.399958 1.579987z m-33.039742-77.571394l35.903719 53.85158 39.915689-25.5918-53.83958-64.271498a36.079718 36.079718 0 0 1-2.055984 1.083991l-17.131866 8.447934 1.175991 4.199968a26.259795 26.259795 0 0 1-3.967969 22.279825zM511.536004 995.588222a21.451832 21.451832 0 0 1-15.271881-6.327951l-36.575714-36.575714a21.499832 21.499832 0 0 1-6.207952-17.539863l25.859798-275.721846a9.999922 9.999922 0 0 1 15.38388-7.467941c10.111921 6.543949 23.523816 6.535949 33.619737 0.008a10.003922 10.003922 0 0 1 15.37988 7.471941l25.871798 275.821845a21.423833 21.423833 0 0 1-6.219951 17.423864l-36.575715 36.575714a21.391833 21.391833 0 0 1-15.26388 6.331951z m-13.579894-320.481496l-24.575808 262.021953a1.663987 1.663987 0 0 0 0.443996 1.415989l36.575714 36.575714a1.599988 1.599988 0 0 0 2.263983 0l36.575714-36.575714a1.599988 1.599988 0 0 0 0.455997-1.30399l-24.583808-262.129952c-8.803931 2.439981-18.351857 2.443981-27.155788-0.004z" fill="#231F20" p-id="2768"></path><path d="M524.519902 622.243139h-24.771806a9.987922 9.987922 0 0 1-7.66394-3.579972l-67.123476-80.127374a9.999922 9.999922 0 0 1 0.811994-13.707893 23.779814 23.779814 0 0 0 7.495941-17.247865v-15.891876a10.003922 10.003922 0 0 1 15.275881-8.495934c19.751846 12.267904 40.651682 18.487856 62.115514 18.487856 22.135827 0 44.483652-6.927946 64.619496-20.039844a10.019922 10.019922 0 0 1 10.22392-0.411997 9.991922 9.991922 0 0 1 5.235959 8.787932v17.559863a23.759814 23.759814 0 0 0 7.587941 17.355864 9.999922 9.999922 0 0 1 0.859993 13.751893l-67.003477 79.979375a9.987922 9.987922 0 0 1-7.66394 3.579972z m-20.103843-19.999844h15.43588l58.583542-69.931454a43.799658 43.799658 0 0 1-7.69994-24.731806v-0.351998c-19.17585 9.495926-39.65569 14.451887-60.079531 14.451887-19.419848 0-38.987695-4.523965-57.403551-13.191897a43.799658 43.799658 0 0 1-7.583941 23.635816l58.747541 70.119452zM662.094827 382.209014c-2.339982 0-4.719963-0.159999-7.719939-0.519996a9.999922 9.999922 0 0 1-8.699932-11.391911c1.039992-7.039945 1.567988-14.09189 1.567987-20.963836V253.666018c0-5.203959 3.987969-9.535926 9.171929-9.963922a69.559457 69.559457 0 0 1 52.731588 18.103859 69.479457 69.479457 0 0 1 22.367825 50.987601c-0.004 38.275701-31.143757 69.415458-69.419458 69.415458z m5.14796-118.475074v85.599331a158.918758 158.918758 0 0 1-0.507996 12.659901c25.083804-2.343982 44.77565-23.515816 44.77565-49.199616a48.759619 48.759619 0 0 0-15.911875-36.267716 49.527613 49.527613 0 0 0-28.355779-12.7919zM359.221194 382.209014c-38.271701 0-69.415458-31.139757-69.415458-69.415458s31.139757-69.415458 69.415458-69.415457c1.911985 0 3.80397 0.083999 5.679955 0.239998a9.995922 9.995922 0 0 1 9.171929 9.963922v95.751252c0 6.875946 0.527996 13.923891 1.567987 20.963836a9.999922 9.999922 0 0 1-8.699932 11.391911c-2.999977 0.359997-5.379958 0.519996-7.719939 0.519996z m-5.14796-118.563074c-24.835806 2.58398-44.263654 23.639815-44.263654 49.147616 0 25.683799 19.691846 46.851634 44.77165 49.199616a158.998758 158.998758 0 0 1-0.507996-12.659901V263.64594z" fill="#231F20" p-id="2769"></path><path d="M510.66001 521.683924c-89.6193 0-156.586777-90.995289-156.586776-172.354653V226.838228a9.999922 9.999922 0 0 1 9.999922-9.999922h4.171967c2.295982 0 4.527965 0.791994 6.307951 2.243982 28.15178 22.891821 81.231365 37.11171 138.526918 37.11171 56.771556 0 109.619144-14.04789 137.918922-36.659713a9.999922 9.999922 0 1 1 16.243873 7.811939v121.983047c0 81.359364-66.967477 172.354653-156.582777 172.354653z m-136.586932-278.437824v106.083171c0 87.199319 72.111437 152.35481 136.586932 152.35481 64.471496 0 136.582933-65.155491 136.582933-152.35481V246.126077c-33.115741 19.027851-81.555363 30.067765-134.162951 30.067765-55.331568 0-105.891173-12.143905-139.006914-32.947742z" fill="#231F20" p-id="2770"></path><path d="M323.949469 275.065851a9.999922 9.999922 0 0 1-9.975922-10.663917 256.501996 256.501996 0 0 1 7.755939-48.031624 9.987922 9.987922 0 0 1 7.123945-7.127945c3.479973-0.915993 7.199944 0.111999 9.711924 2.691979a15.967875 15.967875 0 0 0 11.50791 4.907962h13.995891a9.999922 9.999922 0 0 1 9.999922 9.999922v26.747791c0 2.795978-1.171991 5.463957-3.227975 7.359942a9.887923 9.887923 0 0 1-7.599941 2.60398 48.951618 48.951618 0 0 0-33.343739 9.551925c-1.755986 1.29999-3.84397 1.959985-5.947954 1.959985z m14.05589-40.299685a240.074124 240.074124 0 0 0-2.167983 12.675901 68.811462 68.811462 0 0 1 18.235858-3.87597V236.83815h-3.995969a35.963719 35.963719 0 0 1-12.071906-2.071984zM696.574558 274.525855c-2.043984 0-4.079968-0.623995-5.803955-1.859985a49.479613 49.479613 0 0 0-32.699744-9.03593 9.931922 9.931922 0 0 1-7.599941-2.603979 10.011922 10.011922 0 0 1-3.227975-7.359943V228.118218a9.999922 9.999922 0 0 1 3.691972-8.535933c0.247998-0.199998 0.507996-0.395997 0.767994-0.583996 1.779986-1.431989 3.927969-2.159983 6.215951-2.159983h9.911923a15.999875 15.999875 0 0 0 12.7639-6.37995 9.999922 9.999922 0 1 1 17.579863 3.447973 256.709994 256.709994 0 0 1 8.379934 49.92761 10.007922 10.007922 0 0 1-9.979922 10.691916z m-29.331771-30.867759c5.951954 0.443997 11.815908 1.663987 17.447864 3.603972a236.222155 236.222155 0 0 0-2.335982-13.475894 35.86772 35.86772 0 0 1-14.527886 3.051976h-0.583996v6.819946zM511.536004 676.958711c-25.707799 0-47.551629-19.25185-50.807603-44.78765a9.995922 9.995922 0 0 1 4.519964-9.683924l29.099773-18.659854a10.011922 10.011922 0 0 1 5.399958-1.583988h24.771806c1.915985 0 3.78397 0.551996 5.399958 1.583988l28.015781 17.963859a10.011922 10.011922 0 0 1 4.543965 9.511926 51.1996 51.1996 0 0 1-50.943602 45.655643z m-29.619769-41.399676c4.175967 12.539902 16.011875 21.403833 29.619769 21.403832a31.207756 31.207756 0 0 0 29.855766-22.015828l-19.799845-12.6999h-18.915852l-20.759838 13.311896z" fill="#231F20" p-id="2771"></path><path d="M513.079992 276.193842c-62.607511 0-119.107069-15.551879-151.14282-41.595675a9.999922 9.999922 0 1 1 6.307951-17.755861h289.673737a9.995922 9.995922 0 1 1 6.307951 17.755861c-32.03575 26.043797-88.539308 41.595675-151.146819 41.595675z m-107.859158-39.355692c28.971774 12.247904 67.363474 19.355849 107.859158 19.355848 40.499684 0 78.891384-7.103945 107.863157-19.355848h-215.722315zM693.894579 211.462348a9.999922 9.999922 0 0 1-9.951922-11.047914l-0.008-6.507949a16.127874 16.127874 0 0 0-16.107874-16.107874H350.077265a16.123874 16.123874 0 0 0-16.103874 16.107874v2.691979c0 3.88797-2.251982 7.423942-5.775955 9.067929a10.007922 10.007922 0 0 1-10.659917-1.415989c-32.743744-27.531785-42.415669-59.035539-27.243787-88.699307C300.161655 96.255248 357.237209 0.004 512 0.004c154.750791 0 211.838345 96.251248 221.710268 115.551097 16.163874 31.599753 3.82797 65.835486-33.839736 93.923266a10.007922 10.007922 0 0 1-5.975953 1.983985zM350.077265 157.798767h317.749518c15.555878 0 28.839775 9.883923 33.911735 23.699815 13.863892-14.06389 25.727799-34.243732 14.171889-56.835556-8.94793-17.475863-60.799525-104.659182-203.910407-104.659182-143.118882 0-194.962477 87.183319-203.906407 104.659182-10.25192 20.043843-2.151983 38.263701 10.075921 52.355591a36.135718 36.135718 0 0 1 31.907751-19.21985z" fill="#231F20" p-id="2772"></path><path d="M479.584253 130.57098h-35.79572a14.171889 14.171889 0 0 1-12.7559-7.891938l-3.92797-7.851939h-14.799884a14.187889 14.187889 0 0 1-12.747901-7.871939l-11.49191-22.97982a14.159889 14.159889 0 0 1 0.619995-13.867892 14.151889 14.151889 0 0 1 12.127906-6.763947h76.031406a9.999922 9.999922 0 0 1 8.511933 15.247881 31.191756 31.191756 0 0 0-4.679963 16.395872c0 7.087945 2.335982 13.791892 6.751947 19.379849a9.999922 9.999922 0 1 1-7.843939 16.203873z m-30.66776-16.835869l0.008 0.012-0.008-0.012z m-1.579988-3.163975h15.743877a51.279599 51.279599 0 0 1-1.051992-27.227787h-51.919594l5.743955 11.48391h14.803884c5.431958 0 10.319919 3.019976 12.751901 7.883939l3.927969 7.859938zM580.215467 130.57098h-35.79972a9.999922 9.999922 0 0 1-7.843939-16.203873 30.959758 30.959758 0 0 0 6.755947-19.379849 31.239756 31.239756 0 0 0-4.683963-16.395872 9.995922 9.995922 0 0 1 8.511933-15.247881h76.031406a14.159889 14.159889 0 0 1 12.127906 6.763947 14.151889 14.151889 0 0 1 0.615995 13.871892l-11.479911 22.96782a14.191889 14.191889 0 0 1-12.7519 7.879939h-14.799884l-3.93197 7.863938a14.175889 14.175889 0 0 1-12.7519 7.879939z m-5.13596-16.827869l-0.008 0.016 0.008-0.016z m-14.159889-3.171975h15.743877l3.927969-7.859938a14.183889 14.183889 0 0 1 12.751901-7.883939h14.803884l5.743955-11.48391h-51.915594c0.895993 3.80397 1.351989 7.71194 1.351989 11.643909 0 5.371958-0.815994 10.599917-2.407981 15.583878z m62.267513-27.227787h0.04-0.04z" fill="#231F20" p-id="2773"></path><path d="M512 146.314857c-28.299779 0-51.323599-23.02782-51.323599-51.327599S483.700221 43.663659 512 43.663659s51.327599 23.02382 51.327599 51.323599S540.299779 146.314857 512 146.314857z m0-82.651354c-17.271865 0-31.323755 14.05189-31.323755 31.323755s14.05189 31.327755 31.323755 31.327755 31.327755-14.05589 31.327755-31.327755-14.05589-31.323755-31.327755-31.323755zM667.822783 236.83815H350.077265c-19.911844 0-36.103718-16.199873-36.103718-36.107718v-6.819947c0-19.911844 16.195873-36.107718 36.103718-36.107718h317.749518c19.911844 0 36.107718 16.199873 36.107718 36.107718v6.819947c-0.004 19.907844-16.199873 36.107718-36.111718 36.107718zM350.077265 177.798611a16.123874 16.123874 0 0 0-16.103874 16.107874v6.819947a16.123874 16.123874 0 0 0 16.103874 16.107874h317.749518a16.127874 16.127874 0 0 0 16.107874-16.107874v-6.819947a16.127874 16.127874 0 0 0-16.107874-16.107874H350.077265z" fill="#231F20" p-id="2774"></path><path d="M436.372591 236.83815H384.808994a9.999922 9.999922 0 0 1-9.999922-9.999922V167.798689a9.999922 9.999922 0 0 1 9.999922-9.999922h51.563597a9.999922 9.999922 0 0 1 9.999922 9.999922v59.039539a9.999922 9.999922 0 0 1-9.999922 9.999922z m-41.563675-19.999844h31.563753v-39.039695h-31.563753v39.039695zM537.779799 236.83815h-51.563598a9.999922 9.999922 0 0 1-9.999921-9.999922V167.798689a9.999922 9.999922 0 0 1 9.999921-9.999922h51.563598a9.999922 9.999922 0 0 1 9.999921 9.999922v59.039539a9.999922 9.999922 0 0 1-9.999921 9.999922z m-41.559676-19.999844h31.563754v-39.039695h-31.563754v39.039695zM639.191006 236.83815h-51.567597a9.999922 9.999922 0 0 1-9.999922-9.999922V167.798689a9.999922 9.999922 0 0 1 9.999922-9.999922h51.567597a9.999922 9.999922 0 0 1 9.999922 9.999922v59.039539a9.999922 9.999922 0 0 1-9.999922 9.999922z m-41.567675-19.999844h31.567753v-39.039695h-31.567753v39.039695z" fill="#231F20" p-id="2775"></path></svg>