<?xml version="1.0" standalone="no"?><!DOCTYPE svg PUBLIC "-//W3C//DTD SVG 1.1//EN" "http://www.w3.org/Graphics/SVG/1.1/DTD/svg11.dtd"><svg t="1692858853813" class="icon" viewBox="0 0 1024 1024" version="1.1" xmlns="http://www.w3.org/2000/svg" p-id="1103" xmlns:xlink="http://www.w3.org/1999/xlink" width="200" height="200"><path d="M511.9232 1024c-136.77056 0-265.33376-53.32992-361.984-150.0672C53.28384 777.04192 0 648.36608 0 511.63136 0 239.40096 212.51584 14.76608 483.8912 0.04096c9.4464-0.46592 18.5856 3.2512 24.7808 10.38336s8.98048 16.5888 7.43424 25.89184A537.54368 537.54368 0 0 0 508.8256 124.3648c0 151.46496 35.00544 265.87648 101.2992 330.6752 47.39584 46.35648 112.60928 68.83328 193.61792 66.9696 61.4912-1.39264 119.26528-25.4208 166.97344-69.29408a31.01696 31.01696 0 0 1 32.37376-6.0416c10.99776 4.33664 18.5856 14.72512 19.51744 26.50624 0.92672 12.71296 1.39264 25.73312 1.39264 38.4512 0 136.8832-53.28384 265.55904-149.9392 362.29632-96.80384 96.73728-225.36704 150.0672-362.1376 150.0672zM449.65376 65.4592C229.39648 95.8464 61.95712 284.9792 61.95712 511.63136c0 248.35584 201.8304 450.3552 449.96608 450.3552 239.4624 0 435.8656-188.20096 449.18784-424.62208-47.39584 29.30176-100.36736 45.27104-156.12928 46.51008-98.3552 2.32448-178.59072-26.19904-238.38208-84.64384-41.82016-40.92928-73.2672-96.43008-93.24544-164.79744-17.65888-60.30336-26.63936-131.15392-26.63936-210.21696 0.1536-19.6864 1.08032-39.2192 2.93888-58.75712z" fill="#3B4552" p-id="1104"></path><path d="M929.39264 352h-256.03072c-12.39552 0-23.56736-7.89504-28.3136-19.98336-4.74112-12.08832-1.98656-26.112 6.8864-35.13344l162.67776-168.41728h-144.00512c-16.83456 0-30.60736-14.50496-30.60736-32.23552 0-17.72544 13.7728-32.2304 30.60736-32.2304h218.84416c12.3904 0 23.56736 7.89504 28.3136 19.98336 4.74112 12.08832 1.98656 26.112-6.89152 35.13344L748.19584 287.5392h181.1968c16.83456 0 30.60736 14.50496 30.60736 32.23552 0 17.72544-13.7728 32.2304-30.60736 32.2304z" fill="#1989FA" p-id="1105"></path></svg>