<?xml version="1.0" standalone="no"?><!DOCTYPE svg PUBLIC "-//W3C//DTD SVG 1.1//EN" "http://www.w3.org/Graphics/SVG/1.1/DTD/svg11.dtd"><svg t="1698205901722" class="icon" viewBox="0 0 1024 1024" version="1.1" xmlns="http://www.w3.org/2000/svg" p-id="27270" xmlns:xlink="http://www.w3.org/1999/xlink" width="200" height="200"><path d="M829.58602482 926.23751794h27.61681646V953.86906337h-27.61681646z" fill="#6F6800" p-id="27271"></path><path d="M829.58602482 898.63543045h27.61681646v27.61681646h-27.61681646z" fill="#6F6800" p-id="27272"></path><path d="M829.58602482 732.9345317h27.61681646v27.61681645h-27.61681646z" fill="#F7AB00" p-id="27273"></path><path d="M829.58602482 705.31771523h27.61681646v27.63154543h-27.61681646z m0-27.61681647h27.61681646v27.61681647h-27.61681646z m0-27.63154543h27.61681646v27.63154543h-27.61681646z" fill="#F7AB00" p-id="27274"></path><path d="M829.58602482 622.46726585h27.61681646v27.61681646h-27.61681646z m0-27.61681646h27.61681646V622.46726585h-27.61681646z" fill="#F7AB00" p-id="27275"></path><path d="M829.58602482 567.23363292h27.61681646v27.63154544h-27.61681646z m0-27.61681646h27.61681646v27.61681646h-27.61681646z" fill="#6F6800" p-id="27276"></path><path d="M829.58602482 318.68228477h27.61681646v27.61681647h-27.61681646z" fill="#F7AB00" p-id="27277"></path><path d="M829.58602482 291.0654683h27.61681646v27.63154545h-27.61681646z" fill="#F7AB00" p-id="27278"></path><path d="M801.98393732 926.23751794h27.61681646V953.86906337h-27.61681646z" fill="#6F6800" p-id="27279"></path><path d="M801.98393732 898.63543045h27.61681646v27.61681646h-27.61681646z" fill="#6F6800" p-id="27280"></path><path d="M801.98393732 732.9345317h27.61681646v27.61681645h-27.61681646z" fill="#F7AB00" p-id="27281"></path><path d="M801.98393732 705.31771523h27.61681646v27.63154543h-27.61681646z m0-27.61681647h27.61681646v27.61681647h-27.61681646z m0-27.63154543h27.61681646v27.63154543h-27.61681646z" fill="#F7AB00" p-id="27282"></path><path d="M801.98393732 622.46726585h27.61681646v27.61681646h-27.61681646z m0-27.61681646h27.61681646V622.46726585h-27.61681646z" fill="#F7AB00" p-id="27283"></path><path d="M801.98393732 567.23363292h27.61681646v27.63154544h-27.61681646z m0-27.61681646h27.61681646v27.61681646h-27.61681646z" fill="#6F6800" p-id="27284"></path><path d="M801.98393732 318.68228477h27.61681646v27.61681647h-27.61681646z" fill="#F7AB00" p-id="27285"></path><path d="M801.98393732 291.0654683h27.61681646v27.63154545h-27.61681646z" fill="#F7AB00" p-id="27286"></path><path d="M774.35239189 926.23751794h27.63154543V953.86906337h-27.63154543z" fill="#6F6800" p-id="27287"></path><path d="M774.35239189 898.63543045h27.63154543v27.61681646h-27.63154543z m0-27.63154544h27.63154543v27.63154544h-27.63154543z" fill="#6F6800" p-id="27288"></path><path d="M774.35239189 843.40179753h27.63154543v27.61681645h-27.63154543z" fill="#6F6800" p-id="27289"></path><path d="M774.35239189 732.9345317h27.63154543v27.61681645h-27.63154543z" fill="#F7AB00" p-id="27290"></path><path d="M774.35239189 705.31771523h27.63154543v27.63154543h-27.63154543z m0-27.61681647h27.63154543v27.61681647h-27.63154543z m0-27.63154543h27.63154543v27.63154543h-27.63154543z" fill="#F7AB00" p-id="27291"></path><path d="M774.35239189 622.46726585h27.63154543v27.61681646h-27.63154543z m0-27.61681646h27.63154543V622.46726585h-27.63154543z" fill="#F7AB00" p-id="27292"></path><path d="M774.35239189 567.23363292h27.63154543v27.63154544h-27.63154543z m0-27.61681646h27.63154543v27.61681646h-27.63154543z m0-27.63154544h27.63154543v27.63154544h-27.63154543z" fill="#6F6800" p-id="27293"></path><path d="M774.35239189 484.38318354h27.63154543V512h-27.63154543z m0-110.45253687h27.63154543v27.61681647h-27.63154543z m0-27.63154543h27.63154543v27.63154543h-27.63154543z" fill="#6F6800" p-id="27294"></path><path d="M774.35239189 318.68228477h27.63154543v27.61681647h-27.63154543z" fill="#F7AB00" p-id="27295"></path><path d="M774.35239189 291.0654683h27.63154543v27.63154545h-27.63154543z m0-27.61681645h27.63154543V291.0654683h-27.63154543z" fill="#F7AB00" p-id="27296"></path><path d="M774.35239189 235.84656437h27.63154543v27.61681645h-27.63154543z" fill="#F7AB00" p-id="27297"></path><path d="M774.35239189 152.98138602h27.63154543v27.63154541h-27.63154543z m0-27.61681647h27.63154543v27.61681647h-27.63154543z" fill="#D80001" p-id="27298"></path><path d="M746.75030441 926.23751794h27.61681644V953.86906337h-27.61681644z" fill="#6F6800" p-id="27299"></path><path d="M746.75030441 898.63543045h27.61681644v27.61681646h-27.61681644z m0-27.63154544h27.61681644v27.63154544h-27.61681644z" fill="#6F6800" p-id="27300"></path><path d="M746.75030441 843.40179753h27.61681644v27.61681645h-27.61681644z" fill="#6F6800" p-id="27301"></path><path d="M746.75030441 732.9345317h27.61681644v27.61681645h-27.61681644z" fill="#F7AB00" p-id="27302"></path><path d="M746.75030441 705.31771523h27.61681644v27.63154543h-27.61681644z m0-27.61681647h27.61681644v27.61681647h-27.61681644z m0-27.63154543h27.61681644v27.63154543h-27.61681644z" fill="#F7AB00" p-id="27303"></path><path d="M746.75030441 622.46726585h27.61681644v27.61681646h-27.61681644z m0-27.61681646h27.61681644V622.46726585h-27.61681644z" fill="#F7AB00" p-id="27304"></path><path d="M746.75030441 567.23363292h27.61681644v27.63154544h-27.61681644z m0-27.61681646h27.61681644v27.61681646h-27.61681644z m0-27.63154544h27.61681644v27.63154544h-27.61681644z" fill="#6F6800" p-id="27305"></path><path d="M746.75030441 484.38318354h27.61681644V512h-27.61681644z m0-110.45253687h27.61681644v27.61681647h-27.61681644z m0-27.63154543h27.61681644v27.63154543h-27.61681644z" fill="#6F6800" p-id="27306"></path><path d="M746.75030441 318.68228477h27.61681644v27.61681647h-27.61681644z" fill="#F7AB00" p-id="27307"></path><path d="M746.75030441 291.0654683h27.61681644v27.63154545h-27.61681644z m0-27.61681645h27.61681644V291.0654683h-27.61681644z" fill="#F7AB00" p-id="27308"></path><path d="M746.75030441 235.84656437h27.61681644v27.61681645h-27.61681644z" fill="#F7AB00" p-id="27309"></path><path d="M746.75030441 152.98138602h27.61681644v27.63154541h-27.61681644z m0-27.61681647h27.61681644v27.61681647h-27.61681644z" fill="#D80001" p-id="27310"></path><path d="M719.11875897 926.23751794h27.63154544V953.86906337h-27.63154544z" fill="#6F6800" p-id="27311"></path><path d="M719.11875897 898.63543045h27.63154544v27.61681646h-27.63154544z m0-27.63154544h27.63154544v27.63154544h-27.63154544z" fill="#6F6800" p-id="27312"></path><path d="M719.11875897 843.40179753h27.63154544v27.61681645h-27.63154544z" fill="#6F6800" p-id="27313"></path><path d="M719.11875897 815.78498107h27.63154544V843.40179753h-27.63154544z m0-27.63154544h27.63154544v27.63154544h-27.63154544z" fill="#D80001" p-id="27314"></path><path d="M719.11875897 760.55134815h27.63154544v27.61681645h-27.63154544z m0-27.61681645h27.63154544v27.61681645h-27.63154544z" fill="#D80001" p-id="27315"></path><path d="M719.11875897 705.31771523h27.63154544v27.63154543h-27.63154544z" fill="#D80001" p-id="27316"></path><path d="M719.11875897 677.70089876h27.63154544v27.61681647h-27.63154544z m0-27.63154543h27.63154544v27.63154543h-27.63154544z" fill="#F7AB00" p-id="27317"></path><path d="M719.11875897 622.46726585h27.63154544v27.61681646h-27.63154544z m0-27.61681646h27.63154544V622.46726585h-27.63154544z" fill="#6F6800" p-id="27318"></path><path d="M719.11875897 567.23363292h27.63154544v27.63154544h-27.63154544z m0-27.61681646h27.63154544v27.61681646h-27.63154544z m0-27.63154544h27.63154544v27.63154544h-27.63154544z" fill="#6F6800" p-id="27319"></path><path d="M719.11875897 484.38318354h27.63154544V512h-27.63154544z m0-27.61681646h27.63154544v27.61681646h-27.63154544z" fill="#6F6800" p-id="27320"></path><path d="M719.11875897 429.14955061h27.63154544v27.63154543h-27.63154544z" fill="#6F6800" p-id="27321"></path><path d="M719.11875897 401.53273415h27.63154544v27.61681646h-27.63154544z" fill="#F7AB00" p-id="27322"></path><path d="M719.11875897 373.93064667h27.63154544v27.61681647h-27.63154544z m0-27.63154543h27.63154544v27.63154543h-27.63154544z" fill="#6F6800" p-id="27323"></path><path d="M719.11875897 318.68228477h27.63154544v27.61681647h-27.63154544z" fill="#F7AB00" p-id="27324"></path><path d="M719.11875897 291.0654683h27.63154544v27.63154545h-27.63154544z m0-27.61681645h27.63154544V291.0654683h-27.63154544z" fill="#F7AB00" p-id="27325"></path><path d="M719.11875897 235.84656437h27.63154544v27.61681645h-27.63154544z" fill="#F7AB00" p-id="27326"></path><path d="M719.11875897 152.98138602h27.63154544v27.63154541h-27.63154544z m0-27.61681647h27.63154544v27.61681647h-27.63154544z" fill="#D80001" p-id="27327"></path><path d="M691.50194252 926.23751794h27.61681645V953.86906337h-27.61681645z" fill="#6F6800" p-id="27328"></path><path d="M691.50194252 898.63543045h27.61681645v27.61681646h-27.61681645z m0-27.63154544h27.61681645v27.63154544h-27.61681645z" fill="#6F6800" p-id="27329"></path><path d="M691.50194252 843.40179753h27.61681645v27.61681645h-27.61681645z" fill="#6F6800" p-id="27330"></path><path d="M691.50194252 815.78498107h27.61681645V843.40179753h-27.61681645z m0-27.63154544h27.61681645v27.63154544h-27.61681645z" fill="#D80001" p-id="27331"></path><path d="M691.50194252 760.55134815h27.61681645v27.61681645h-27.61681645z m0-27.61681645h27.61681645v27.61681645h-27.61681645z" fill="#D80001" p-id="27332"></path><path d="M691.50194252 705.31771523h27.61681645v27.63154543h-27.61681645z" fill="#D80001" p-id="27333"></path><path d="M691.50194252 677.70089876h27.61681645v27.61681647h-27.61681645z m0-27.63154543h27.61681645v27.63154543h-27.61681645z" fill="#F7AB00" p-id="27334"></path><path d="M691.50194252 622.46726585h27.61681645v27.61681646h-27.61681645z m0-27.61681646h27.61681645V622.46726585h-27.61681645z" fill="#6F6800" p-id="27335"></path><path d="M691.50194252 567.23363292h27.61681645v27.63154544h-27.61681645z m0-27.61681646h27.61681645v27.61681646h-27.61681645z m0-27.63154544h27.61681645v27.63154544h-27.61681645z" fill="#6F6800" p-id="27336"></path><path d="M691.50194252 484.38318354h27.61681645V512h-27.61681645z m0-27.61681646h27.61681645v27.61681646h-27.61681645z" fill="#6F6800" p-id="27337"></path><path d="M691.50194252 429.14955061h27.61681645v27.63154543h-27.61681645z" fill="#6F6800" p-id="27338"></path><path d="M691.50194252 401.53273415h27.61681645v27.61681646h-27.61681645z" fill="#F7AB00" p-id="27339"></path><path d="M691.50194252 373.93064667h27.61681645v27.61681647h-27.61681645z m0-27.63154543h27.61681645v27.63154543h-27.61681645z" fill="#6F6800" p-id="27340"></path><path d="M691.50194252 318.68228477h27.61681645v27.61681647h-27.61681645z" fill="#F7AB00" p-id="27341"></path><path d="M691.50194252 291.0654683h27.61681645v27.63154545h-27.61681645z m0-27.61681645h27.61681645V291.0654683h-27.61681645z" fill="#F7AB00" p-id="27342"></path><path d="M691.50194252 235.84656437h27.61681645v27.61681645h-27.61681645z" fill="#F7AB00" p-id="27343"></path><path d="M691.50194252 152.98138602h27.61681645v27.63154541h-27.61681645z m0-27.61681647h27.61681645v27.61681647h-27.61681645z" fill="#D80001" p-id="27344"></path><path d="M663.89985502 926.23751794h27.61681645V953.86906337h-27.61681645z" fill="#6F6800" p-id="27345"></path><path d="M663.89985502 898.63543045h27.61681645v27.61681646h-27.61681645z m0-27.63154544h27.61681645v27.63154544h-27.61681645z" fill="#6F6800" p-id="27346"></path><path d="M663.89985502 843.40179753h27.61681645v27.61681645h-27.61681645z" fill="#6F6800" p-id="27347"></path><path d="M663.89985502 815.78498107h27.61681645V843.40179753h-27.61681645z m0-27.63154544h27.61681645v27.63154544h-27.61681645z" fill="#D80001" p-id="27348"></path><path d="M663.89985502 760.55134815h27.61681645v27.61681645h-27.61681645z m0-27.61681645h27.61681645v27.61681645h-27.61681645z" fill="#D80001" p-id="27349"></path><path d="M663.89985502 705.31771523h27.61681645v27.63154543h-27.61681645z m0-27.61681647h27.61681645v27.61681647h-27.61681645z m0-27.63154543h27.61681645v27.63154543h-27.61681645z" fill="#D80001" p-id="27350"></path><path d="M663.89985502 622.46726585h27.61681645v27.61681646h-27.61681645z m0-27.61681646h27.61681645V622.46726585h-27.61681645z" fill="#D80001" p-id="27351"></path><path d="M663.89985502 567.23363292h27.61681645v27.63154544h-27.61681645z m0-27.61681646h27.61681645v27.61681646h-27.61681645z m0-27.63154544h27.61681645v27.63154544h-27.61681645z" fill="#6F6800" p-id="27352"></path><path d="M663.89985502 484.38318354h27.61681645V512h-27.61681645z m0-27.61681646h27.61681645v27.61681646h-27.61681645z" fill="#6F6800" p-id="27353"></path><path d="M663.89985502 429.14955061h27.61681645v27.63154543h-27.61681645z" fill="#6F6800" p-id="27354"></path><path d="M663.89985502 401.53273415h27.61681645v27.61681646h-27.61681645z" fill="#F7AB00" p-id="27355"></path><path d="M663.89985502 373.93064667h27.61681645v27.61681647h-27.61681645z m0-27.63154543h27.61681645v27.63154543h-27.61681645z m0-27.61681647h27.61681645v27.61681647h-27.61681645z" fill="#6F6800" p-id="27356"></path><path d="M663.89985502 291.0654683h27.61681645v27.63154545h-27.61681645z" fill="#6F6800" p-id="27357"></path><path d="M663.89985502 263.44865185h27.61681645V291.0654683h-27.61681645z" fill="#F7AB00" p-id="27358"></path><path d="M663.89985502 235.84656437h27.61681645v27.61681645h-27.61681645z m0-27.63154544h27.61681645v27.63154544h-27.61681645z m0-27.61681646h27.61681645v27.61681646h-27.61681645z" fill="#F7AB00" p-id="27359"></path><path d="M663.89985502 152.98138602h27.61681645v27.63154541h-27.61681645z m0-27.61681647h27.61681645v27.61681647h-27.61681645z" fill="#D80001" p-id="27360"></path><path d="M636.26830958 926.23751794h27.63154544V953.86906337h-27.63154544z" fill="#6F6800" p-id="27361"></path><path d="M636.26830958 898.63543045h27.63154544v27.61681646h-27.63154544z m0-27.63154544h27.63154544v27.63154544h-27.63154544z" fill="#6F6800" p-id="27362"></path><path d="M636.26830958 843.40179753h27.63154544v27.61681645h-27.63154544z" fill="#6F6800" p-id="27363"></path><path d="M636.26830958 815.78498107h27.63154544V843.40179753h-27.63154544z m0-27.63154544h27.63154544v27.63154544h-27.63154544z" fill="#D80001" p-id="27364"></path><path d="M636.26830958 760.55134815h27.63154544v27.61681645h-27.63154544z m0-27.61681645h27.63154544v27.61681645h-27.63154544z" fill="#D80001" p-id="27365"></path><path d="M636.26830958 705.31771523h27.63154544v27.63154543h-27.63154544z m0-27.61681647h27.63154544v27.61681647h-27.63154544z m0-27.63154543h27.63154544v27.63154543h-27.63154544z" fill="#D80001" p-id="27366"></path><path d="M636.26830958 622.46726585h27.63154544v27.61681646h-27.63154544z m0-27.61681646h27.63154544V622.46726585h-27.63154544z" fill="#D80001" p-id="27367"></path><path d="M636.26830958 567.23363292h27.63154544v27.63154544h-27.63154544z m0-27.61681646h27.63154544v27.61681646h-27.63154544z m0-27.63154544h27.63154544v27.63154544h-27.63154544z" fill="#6F6800" p-id="27368"></path><path d="M636.26830958 484.38318354h27.63154544V512h-27.63154544z m0-27.61681646h27.63154544v27.61681646h-27.63154544z" fill="#6F6800" p-id="27369"></path><path d="M636.26830958 429.14955061h27.63154544v27.63154543h-27.63154544z" fill="#6F6800" p-id="27370"></path><path d="M636.26830958 401.53273415h27.63154544v27.61681646h-27.63154544z" fill="#F7AB00" p-id="27371"></path><path d="M636.26830958 373.93064667h27.63154544v27.61681647h-27.63154544z m0-27.63154543h27.63154544v27.63154543h-27.63154544z m0-27.61681647h27.63154544v27.61681647h-27.63154544z" fill="#6F6800" p-id="27372"></path><path d="M636.26830958 291.0654683h27.63154544v27.63154545h-27.63154544z" fill="#6F6800" p-id="27373"></path><path d="M636.26830958 263.44865185h27.63154544V291.0654683h-27.63154544z" fill="#F7AB00" p-id="27374"></path><path d="M636.26830958 235.84656437h27.63154544v27.61681645h-27.63154544z m0-27.63154544h27.63154544v27.63154544h-27.63154544z m0-27.61681646h27.63154544v27.61681646h-27.63154544z" fill="#F7AB00" p-id="27375"></path><path d="M636.26830958 152.98138602h27.63154544v27.63154541h-27.63154544z m0-27.61681647h27.63154544v27.61681647h-27.63154544z m-27.60208749 690.42041152h27.61681647V843.40179753h-27.61681647z m0-27.63154544h27.61681647v27.63154544h-27.61681647z" fill="#D80001" p-id="27376"></path><path d="M608.66622209 760.55134815h27.61681647v27.61681645h-27.61681647z m0-27.61681645h27.61681647v27.61681645h-27.61681647z" fill="#D80001" p-id="27377"></path><path d="M608.66622209 705.31771523h27.61681647v27.63154543h-27.61681647z m0-27.61681647h27.61681647v27.61681647h-27.61681647z m0-27.63154543h27.61681647v27.63154543h-27.61681647z" fill="#D80001" p-id="27378"></path><path d="M608.66622209 622.46726585h27.61681647v27.61681646h-27.61681647z m0-27.61681646h27.61681647V622.46726585h-27.61681647z" fill="#F7AB00" p-id="27379"></path><path d="M608.66622209 567.23363292h27.61681647v27.63154544h-27.61681647z m0-27.61681646h27.61681647v27.61681646h-27.61681647z m0-27.63154544h27.61681647v27.63154544h-27.61681647z" fill="#D80001" p-id="27380"></path><path d="M608.66622209 484.38318354h27.61681647V512h-27.61681647z m0-27.61681646h27.61681647v27.61681646h-27.61681647z" fill="#D80001" p-id="27381"></path><path d="M608.66622209 429.14955061h27.61681647v27.63154543h-27.61681647z" fill="#D80001" p-id="27382"></path><path d="M608.66622209 401.53273415h27.61681647v27.61681646h-27.61681647z" fill="#F7AB00" p-id="27383"></path><path d="M608.66622209 373.93064667h27.61681647v27.61681647h-27.61681647z m0-27.63154543h27.61681647v27.63154543h-27.61681647z" fill="#6F6800" p-id="27384"></path><path d="M608.66622209 318.68228477h27.61681647v27.61681647h-27.61681647z" fill="#F7AB00" p-id="27385"></path><path d="M608.66622209 291.0654683h27.61681647v27.63154545h-27.61681647z" fill="#F7AB00" p-id="27386"></path><path d="M608.66622209 263.44865185h27.61681647V291.0654683h-27.61681647z" fill="#6F6800" p-id="27387"></path><path d="M608.66622209 235.84656437h27.61681647v27.61681645h-27.61681647z m0-27.63154544h27.61681647v27.63154544h-27.61681647z m0-27.61681646h27.61681647v27.61681646h-27.61681647z" fill="#6F6800" p-id="27388"></path><path d="M608.66622209 152.98138602h27.61681647v27.63154541h-27.61681647z m0-27.61681647h27.61681647v27.61681647h-27.61681647z" fill="#D80001" p-id="27389"></path><path d="M608.66622209 97.76248206h27.61681647v27.61681646h-27.61681647z m0-27.63154543h27.61681647v27.63154543h-27.61681647z m-27.63154541 745.65404444h27.63154541V843.40179753h-27.63154541z m0-27.63154544h27.63154541v27.63154544h-27.63154541z" fill="#D80001" p-id="27390"></path><path d="M581.03467668 760.55134815h27.63154541v27.61681645h-27.63154541z m0-27.61681645h27.63154541v27.61681645h-27.63154541z" fill="#D80001" p-id="27391"></path><path d="M581.03467668 705.31771523h27.63154541v27.63154543h-27.63154541z m0-27.61681647h27.63154541v27.61681647h-27.63154541z m0-27.63154543h27.63154541v27.63154543h-27.63154541z" fill="#D80001" p-id="27392"></path><path d="M581.03467668 622.46726585h27.63154541v27.61681646h-27.63154541z m0-27.61681646h27.63154541V622.46726585h-27.63154541z" fill="#F7AB00" p-id="27393"></path><path d="M581.03467668 567.23363292h27.63154541v27.63154544h-27.63154541z m0-27.61681646h27.63154541v27.61681646h-27.63154541z m0-27.63154544h27.63154541v27.63154544h-27.63154541z" fill="#D80001" p-id="27394"></path><path d="M581.03467668 484.38318354h27.63154541V512h-27.63154541z m0-27.61681646h27.63154541v27.61681646h-27.63154541z" fill="#D80001" p-id="27395"></path><path d="M581.03467668 429.14955061h27.63154541v27.63154543h-27.63154541z" fill="#D80001" p-id="27396"></path><path d="M581.03467668 401.53273415h27.63154541v27.61681646h-27.63154541z" fill="#F7AB00" p-id="27397"></path><path d="M581.03467668 373.93064667h27.63154541v27.61681647h-27.63154541z m0-27.63154543h27.63154541v27.63154543h-27.63154541z" fill="#6F6800" p-id="27398"></path><path d="M581.03467668 318.68228477h27.63154541v27.61681647h-27.63154541z" fill="#F7AB00" p-id="27399"></path><path d="M581.03467668 291.0654683h27.63154541v27.63154545h-27.63154541z" fill="#F7AB00" p-id="27400"></path><path d="M581.03467668 263.44865185h27.63154541V291.0654683h-27.63154541z" fill="#6F6800" p-id="27401"></path><path d="M581.03467668 235.84656437h27.63154541v27.61681645h-27.63154541z m0-27.63154544h27.63154541v27.63154544h-27.63154541z m0-27.61681646h27.63154541v27.61681646h-27.63154541z" fill="#6F6800" p-id="27402"></path><path d="M581.03467668 152.98138602h27.63154541v27.63154541h-27.63154541z m0-27.61681647h27.63154541v27.61681647h-27.63154541z" fill="#D80001" p-id="27403"></path><path d="M581.03467668 97.76248206h27.63154541v27.61681646h-27.63154541z m0-27.63154543h27.63154541v27.63154543h-27.63154541z m-27.61681648 690.42041152h27.61681648v27.61681645h-27.61681648z m0-27.61681645h27.61681648v27.61681645h-27.61681648z" fill="#D80001" p-id="27404"></path><path d="M553.4178602 705.31771523h27.61681648v27.63154543h-27.61681648z m0-27.61681647h27.61681648v27.61681647h-27.61681648z m0-27.63154543h27.61681648v27.63154543h-27.61681648z" fill="#D80001" p-id="27405"></path><path d="M553.4178602 622.46726585h27.61681648v27.61681646h-27.61681648z m0-27.61681646h27.61681648V622.46726585h-27.61681648z" fill="#D80001" p-id="27406"></path><path d="M553.4178602 567.23363292h27.61681648v27.63154544h-27.61681648z m0-27.61681646h27.61681648v27.61681646h-27.61681648z" fill="#D80001" p-id="27407"></path><path d="M553.4178602 511.98527102h27.61681648v27.63154544h-27.61681648z" fill="#6F6800" p-id="27408"></path><path d="M553.4178602 484.38318354h27.61681648V512h-27.61681648z m0-27.61681646h27.61681648v27.61681646h-27.61681648z" fill="#6F6800" p-id="27409"></path><path d="M553.4178602 429.14955061h27.61681648v27.63154543h-27.61681648z" fill="#6F6800" p-id="27410"></path><path d="M553.4178602 401.53273415h27.61681648v27.61681646h-27.61681648z" fill="#F7AB00" p-id="27411"></path><path d="M553.4178602 373.93064667h27.61681648v27.61681647h-27.61681648z m0-27.63154543h27.61681648v27.63154543h-27.61681648z m0-27.61681647h27.61681648v27.61681647h-27.61681648z" fill="#F7AB00" p-id="27412"></path><path d="M553.4178602 291.0654683h27.61681648v27.63154545h-27.61681648z m0-27.61681645h27.61681648V291.0654683h-27.61681648z" fill="#F7AB00" p-id="27413"></path><path d="M553.4178602 235.84656437h27.61681648v27.61681645h-27.61681648z m0-27.63154544h27.61681648v27.63154544h-27.61681648z m0-27.61681646h27.61681648v27.61681646h-27.61681648z" fill="#F7AB00" p-id="27414"></path><path d="M553.4178602 152.98138602h27.61681648v27.63154541h-27.61681648z m0-27.61681647h27.61681648v27.61681647h-27.61681648z" fill="#D80001" p-id="27415"></path><path d="M553.4178602 97.76248206h27.61681648v27.61681646h-27.61681648z m0-27.63154543h27.61681648v27.63154543h-27.61681648z m-27.6020875 690.42041152h27.61681647v27.61681645h-27.61681647z m0-27.61681645h27.61681647v27.61681645h-27.61681647z" fill="#D80001" p-id="27416"></path><path d="M525.8157727 705.31771523h27.61681647v27.63154543h-27.61681647z m0-27.61681647h27.61681647v27.61681647h-27.61681647z m0-27.63154543h27.61681647v27.63154543h-27.61681647z" fill="#D80001" p-id="27417"></path><path d="M525.8157727 622.46726585h27.61681647v27.61681646h-27.61681647z m0-27.61681646h27.61681647V622.46726585h-27.61681647z" fill="#D80001" p-id="27418"></path><path d="M525.8157727 567.23363292h27.61681647v27.63154544h-27.61681647z m0-27.61681646h27.61681647v27.61681646h-27.61681647z" fill="#D80001" p-id="27419"></path><path d="M525.8157727 511.98527102h27.61681647v27.63154544h-27.61681647z" fill="#6F6800" p-id="27420"></path><path d="M525.8157727 484.38318354h27.61681647V512h-27.61681647z m0-27.61681646h27.61681647v27.61681646h-27.61681647z" fill="#6F6800" p-id="27421"></path><path d="M525.8157727 429.14955061h27.61681647v27.63154543h-27.61681647z" fill="#6F6800" p-id="27422"></path><path d="M525.8157727 401.53273415h27.61681647v27.61681646h-27.61681647z" fill="#F7AB00" p-id="27423"></path><path d="M525.8157727 373.93064667h27.61681647v27.61681647h-27.61681647z m0-27.63154543h27.61681647v27.63154543h-27.61681647z m0-27.61681647h27.61681647v27.61681647h-27.61681647z" fill="#F7AB00" p-id="27424"></path><path d="M525.8157727 291.0654683h27.61681647v27.63154545h-27.61681647z m0-27.61681645h27.61681647V291.0654683h-27.61681647z" fill="#F7AB00" p-id="27425"></path><path d="M525.8157727 235.84656437h27.61681647v27.61681645h-27.61681647z m0-27.63154544h27.61681647v27.63154544h-27.61681647z m0-27.61681646h27.61681647v27.61681646h-27.61681647z" fill="#F7AB00" p-id="27426"></path><path d="M525.8157727 152.98138602h27.61681647v27.63154541h-27.61681647z m0-27.61681647h27.61681647v27.61681647h-27.61681647z" fill="#D80001" p-id="27427"></path><path d="M525.8157727 97.76248206h27.61681647v27.61681646h-27.61681647z m0-27.63154543h27.61681647v27.63154543h-27.61681647z m-27.6315454 690.42041152h27.6315454v27.61681645h-27.6315454z m0-27.61681645h27.6315454v27.61681645h-27.6315454z" fill="#D80001" p-id="27428"></path><path d="M498.1842273 705.31771523h27.6315454v27.63154543h-27.6315454z m0-27.61681647h27.6315454v27.61681647h-27.6315454z m0-27.63154543h27.6315454v27.63154543h-27.6315454z" fill="#D80001" p-id="27429"></path><path d="M498.1842273 622.46726585h27.6315454v27.61681646h-27.6315454z m0-27.61681646h27.6315454V622.46726585h-27.6315454z" fill="#D80001" p-id="27430"></path><path d="M498.1842273 567.23363292h27.6315454v27.63154544h-27.6315454z m0-27.61681646h27.6315454v27.61681646h-27.6315454z" fill="#D80001" p-id="27431"></path><path d="M498.1842273 511.98527102h27.6315454v27.63154544h-27.6315454z" fill="#6F6800" p-id="27432"></path><path d="M498.1842273 484.38318354h27.6315454V512h-27.6315454z m0-27.61681646h27.6315454v27.61681646h-27.6315454z" fill="#6F6800" p-id="27433"></path><path d="M498.1842273 429.14955061h27.6315454v27.63154543h-27.6315454z" fill="#6F6800" p-id="27434"></path><path d="M498.1842273 401.53273415h27.6315454v27.61681646h-27.6315454z" fill="#F7AB00" p-id="27435"></path><path d="M498.1842273 373.93064667h27.6315454v27.61681647h-27.6315454z m0-27.63154543h27.6315454v27.63154543h-27.6315454z m0-27.61681647h27.6315454v27.61681647h-27.6315454z" fill="#F7AB00" p-id="27436"></path><path d="M498.1842273 291.0654683h27.6315454v27.63154545h-27.6315454z m0-27.61681645h27.6315454V291.0654683h-27.6315454z" fill="#F7AB00" p-id="27437"></path><path d="M498.1842273 235.84656437h27.6315454v27.61681645h-27.6315454z m0-27.63154544h27.6315454v27.63154544h-27.6315454z m0-27.61681646h27.6315454v27.61681646h-27.6315454z" fill="#F7AB00" p-id="27438"></path><path d="M498.1842273 152.98138602h27.6315454v27.63154541h-27.6315454z m0-27.61681647h27.6315454v27.61681647h-27.6315454z" fill="#D80001" p-id="27439"></path><path d="M498.1842273 97.76248206h27.6315454v27.61681646h-27.6315454z m0-27.63154543h27.6315454v27.63154543h-27.6315454z m-27.6020875 690.42041152h27.61681645v27.61681645h-27.61681645z m0-27.61681645h27.61681645v27.61681645h-27.61681645z" fill="#D80001" p-id="27440"></path><path d="M470.5821398 705.31771523h27.61681645v27.63154543h-27.61681645z m0-27.61681647h27.61681645v27.61681647h-27.61681645z m0-27.63154543h27.61681645v27.63154543h-27.61681645z" fill="#D80001" p-id="27441"></path><path d="M470.5821398 622.46726585h27.61681645v27.61681646h-27.61681645z m0-27.61681646h27.61681645V622.46726585h-27.61681645z" fill="#D80001" p-id="27442"></path><path d="M470.5821398 567.23363292h27.61681645v27.63154544h-27.61681645z m0-27.61681646h27.61681645v27.61681646h-27.61681645z" fill="#D80001" p-id="27443"></path><path d="M470.5821398 511.98527102h27.61681645v27.63154544h-27.61681645z" fill="#6F6800" p-id="27444"></path><path d="M470.5821398 484.38318354h27.61681645V512h-27.61681645z m0-27.61681646h27.61681645v27.61681646h-27.61681645z" fill="#6F6800" p-id="27445"></path><path d="M470.5821398 429.14955061h27.61681645v27.63154543h-27.61681645z" fill="#6F6800" p-id="27446"></path><path d="M470.5821398 401.53273415h27.61681645v27.61681646h-27.61681645z" fill="#F7AB00" p-id="27447"></path><path d="M470.5821398 373.93064667h27.61681645v27.61681647h-27.61681645z m0-27.63154543h27.61681645v27.63154543h-27.61681645z m0-27.61681647h27.61681645v27.61681647h-27.61681645z" fill="#F7AB00" p-id="27448"></path><path d="M470.5821398 291.0654683h27.61681645v27.63154545h-27.61681645z m0-27.61681645h27.61681645V291.0654683h-27.61681645z" fill="#F7AB00" p-id="27449"></path><path d="M470.5821398 235.84656437h27.61681645v27.61681645h-27.61681645z m0-27.63154544h27.61681645v27.63154544h-27.61681645z m0-27.61681646h27.61681645v27.61681646h-27.61681645z" fill="#F7AB00" p-id="27450"></path><path d="M470.5821398 152.98138602h27.61681645v27.63154541h-27.61681645z m0-27.61681647h27.61681645v27.61681647h-27.61681645z" fill="#D80001" p-id="27451"></path><path d="M470.5821398 97.76248206h27.61681645v27.61681646h-27.61681645z m0-27.63154543h27.61681645v27.63154543h-27.61681645z m-27.61681648 690.42041152h27.61681648v27.61681645h-27.61681648z m0-27.61681645h27.61681648v27.61681645h-27.61681648z" fill="#D80001" p-id="27452"></path><path d="M442.96532332 705.31771523h27.61681648v27.63154543h-27.61681648z m0-27.61681647h27.61681648v27.61681647h-27.61681648z m0-27.63154543h27.61681648v27.63154543h-27.61681648z" fill="#D80001" p-id="27453"></path><path d="M442.96532332 622.46726585h27.61681648v27.61681646h-27.61681648z m0-27.61681646h27.61681648V622.46726585h-27.61681648z" fill="#D80001" p-id="27454"></path><path d="M442.96532332 567.23363292h27.61681648v27.63154544h-27.61681648z m0-27.61681646h27.61681648v27.61681646h-27.61681648z" fill="#D80001" p-id="27455"></path><path d="M442.96532332 511.98527102h27.61681648v27.63154544h-27.61681648z" fill="#6F6800" p-id="27456"></path><path d="M442.96532332 484.38318354h27.61681648V512h-27.61681648z m0-27.61681646h27.61681648v27.61681646h-27.61681648z" fill="#6F6800" p-id="27457"></path><path d="M442.96532332 429.14955061h27.61681648v27.63154543h-27.61681648z" fill="#6F6800" p-id="27458"></path><path d="M442.96532332 401.53273415h27.61681648v27.61681646h-27.61681648z" fill="#F7AB00" p-id="27459"></path><path d="M442.96532332 373.93064667h27.61681648v27.61681647h-27.61681648z m0-27.63154543h27.61681648v27.63154543h-27.61681648z m0-27.61681647h27.61681648v27.61681647h-27.61681648z" fill="#F7AB00" p-id="27460"></path><path d="M442.96532332 291.0654683h27.61681648v27.63154545h-27.61681648z m0-27.61681645h27.61681648V291.0654683h-27.61681648z" fill="#F7AB00" p-id="27461"></path><path d="M442.96532332 235.84656437h27.61681648v27.61681645h-27.61681648z m0-27.63154544h27.61681648v27.63154544h-27.61681648z m0-27.61681646h27.61681648v27.61681646h-27.61681648z" fill="#F7AB00" p-id="27462"></path><path d="M442.96532332 152.98138602h27.61681648v27.63154541h-27.61681648z m0-27.61681647h27.61681648v27.61681647h-27.61681648z" fill="#D80001" p-id="27463"></path><path d="M442.96532332 97.76248206h27.61681648v27.61681646h-27.61681648z m0-27.63154543h27.61681648v27.63154543h-27.61681648z m-27.63154541 745.65404444h27.63154541V843.40179753h-27.63154541z m0-27.63154544h27.63154541v27.63154544h-27.63154541z" fill="#D80001" p-id="27464"></path><path d="M415.33377791 760.55134815h27.63154541v27.61681645h-27.63154541z m0-27.61681645h27.63154541v27.61681645h-27.63154541z" fill="#D80001" p-id="27465"></path><path d="M415.33377791 705.31771523h27.63154541v27.63154543h-27.63154541z m0-27.61681647h27.63154541v27.61681647h-27.63154541z m0-27.63154543h27.63154541v27.63154543h-27.63154541z" fill="#D80001" p-id="27466"></path><path d="M415.33377791 622.46726585h27.63154541v27.61681646h-27.63154541z m0-27.61681646h27.63154541V622.46726585h-27.63154541z" fill="#F7AB00" p-id="27467"></path><path d="M415.33377791 567.23363292h27.63154541v27.63154544h-27.63154541z m0-27.61681646h27.63154541v27.61681646h-27.63154541z m0-27.63154544h27.63154541v27.63154544h-27.63154541z" fill="#D80001" p-id="27468"></path><path d="M415.33377791 484.38318354h27.63154541V512h-27.63154541z m0-27.61681646h27.63154541v27.61681646h-27.63154541z" fill="#D80001" p-id="27469"></path><path d="M415.33377791 429.14955061h27.63154541v27.63154543h-27.63154541z" fill="#D80001" p-id="27470"></path><path d="M415.33377791 401.53273415h27.63154541v27.61681646h-27.63154541z" fill="#F7AB00" p-id="27471"></path><path d="M415.33377791 373.93064667h27.63154541v27.61681647h-27.63154541z m0-27.63154543h27.63154541v27.63154543h-27.63154541z" fill="#F7AB00" p-id="27472"></path><path d="M415.33377791 318.68228477h27.63154541v27.61681647h-27.63154541z" fill="#6F6800" p-id="27473"></path><path d="M415.33377791 291.0654683h27.63154541v27.63154545h-27.63154541z" fill="#6F6800" p-id="27474"></path><path d="M415.33377791 263.44865185h27.63154541V291.0654683h-27.63154541z" fill="#F7AB00" p-id="27475"></path><path d="M415.33377791 235.84656437h27.63154541v27.61681645h-27.63154541z" fill="#F7AB00" p-id="27476"></path><path d="M415.33377791 208.21501893h27.63154541v27.63154544h-27.63154541z m0-27.61681646h27.63154541v27.61681646h-27.63154541z" fill="#6F6800" p-id="27477"></path><path d="M415.33377791 152.98138602h27.63154541v27.63154541h-27.63154541z m0-27.61681647h27.63154541v27.61681647h-27.63154541z" fill="#D80001" p-id="27478"></path><path d="M415.33377791 97.76248206h27.63154541v27.61681646h-27.63154541z m0-27.63154543h27.63154541v27.63154543h-27.63154541z m-27.60208749 745.65404444h27.61681644V843.40179753h-27.61681644z m0-27.63154544h27.61681644v27.63154544h-27.61681644z" fill="#D80001" p-id="27479"></path><path d="M387.73169042 760.55134815h27.61681644v27.61681645h-27.61681644z m0-27.61681645h27.61681644v27.61681645h-27.61681644z" fill="#D80001" p-id="27480"></path><path d="M387.73169042 705.31771523h27.61681644v27.63154543h-27.61681644z m0-27.61681647h27.61681644v27.61681647h-27.61681644z m0-27.63154543h27.61681644v27.63154543h-27.61681644z" fill="#D80001" p-id="27481"></path><path d="M387.73169042 622.46726585h27.61681644v27.61681646h-27.61681644z m0-27.61681646h27.61681644V622.46726585h-27.61681644z" fill="#F7AB00" p-id="27482"></path><path d="M387.73169042 567.23363292h27.61681644v27.63154544h-27.61681644z m0-27.61681646h27.61681644v27.61681646h-27.61681644z m0-27.63154544h27.61681644v27.63154544h-27.61681644z" fill="#D80001" p-id="27483"></path><path d="M387.73169042 484.38318354h27.61681644V512h-27.61681644z m0-27.61681646h27.61681644v27.61681646h-27.61681644z" fill="#D80001" p-id="27484"></path><path d="M387.73169042 429.14955061h27.61681644v27.63154543h-27.61681644z" fill="#D80001" p-id="27485"></path><path d="M387.73169042 401.53273415h27.61681644v27.61681646h-27.61681644z" fill="#F7AB00" p-id="27486"></path><path d="M387.73169042 373.93064667h27.61681644v27.61681647h-27.61681644z m0-27.63154543h27.61681644v27.63154543h-27.61681644z" fill="#F7AB00" p-id="27487"></path><path d="M387.73169042 318.68228477h27.61681644v27.61681647h-27.61681644z" fill="#6F6800" p-id="27488"></path><path d="M387.73169042 291.0654683h27.61681644v27.63154545h-27.61681644z" fill="#6F6800" p-id="27489"></path><path d="M387.73169042 263.44865185h27.61681644V291.0654683h-27.61681644z" fill="#F7AB00" p-id="27490"></path><path d="M387.73169042 235.84656437h27.61681644v27.61681645h-27.61681644z" fill="#F7AB00" p-id="27491"></path><path d="M387.73169042 208.21501893h27.61681644v27.63154544h-27.61681644z m0-27.61681646h27.61681644v27.61681646h-27.61681644z" fill="#6F6800" p-id="27492"></path><path d="M387.73169042 152.98138602h27.61681644v27.63154541h-27.61681644z m0-27.61681647h27.61681644v27.61681647h-27.61681644z" fill="#D80001" p-id="27493"></path><path d="M387.73169042 97.76248206h27.61681644v27.61681646h-27.61681644z m0-27.63154543h27.61681644v27.63154543h-27.61681644z" fill="#D80001" p-id="27494"></path><path d="M360.10014498 926.23751794h27.63154544V953.86906337h-27.63154544z" fill="#6F6800" p-id="27495"></path><path d="M360.10014498 898.63543045h27.63154544v27.61681646h-27.63154544z m0-27.63154544h27.63154544v27.63154544h-27.63154544z" fill="#6F6800" p-id="27496"></path><path d="M360.10014498 843.40179753h27.63154544v27.61681645h-27.63154544z" fill="#6F6800" p-id="27497"></path><path d="M360.10014498 815.78498107h27.63154544V843.40179753h-27.63154544z m0-27.63154544h27.63154544v27.63154544h-27.63154544z" fill="#D80001" p-id="27498"></path><path d="M360.10014498 760.55134815h27.63154544v27.61681645h-27.63154544z" fill="#D80001" p-id="27499"></path><path d="M360.10014498 732.9345317h27.63154544v27.61681645h-27.63154544z" fill="#D0010B" p-id="27500"></path><path d="M360.10014498 705.31771523h27.63154544v27.63154543h-27.63154544z m0-27.61681647h27.63154544v27.61681647h-27.63154544z m0-27.63154543h27.63154544v27.63154543h-27.63154544z" fill="#D80001" p-id="27501"></path><path d="M360.10014498 622.46726585h27.63154544v27.61681646h-27.63154544z m0-27.61681646h27.63154544V622.46726585h-27.63154544z" fill="#D80001" p-id="27502"></path><path d="M360.10014498 567.23363292h27.63154544v27.63154544h-27.63154544z m0-27.61681646h27.63154544v27.61681646h-27.63154544z m0-27.63154544h27.63154544v27.63154544h-27.63154544z" fill="#6F6800" p-id="27503"></path><path d="M360.10014498 484.38318354h27.63154544V512h-27.63154544z m0-27.61681646h27.63154544v27.61681646h-27.63154544z" fill="#6F6800" p-id="27504"></path><path d="M360.10014498 429.14955061h27.63154544v27.63154543h-27.63154544z" fill="#6F6800" p-id="27505"></path><path d="M360.10014498 401.53273415h27.63154544v27.61681646h-27.63154544z" fill="#F7AB00" p-id="27506"></path><path d="M360.10014498 373.93064667h27.63154544v27.61681647h-27.63154544z m0-27.63154543h27.63154544v27.63154543h-27.63154544z" fill="#F7AB00" p-id="27507"></path><path d="M360.10014498 318.68228477h27.63154544v27.61681647h-27.63154544z" fill="#6F6800" p-id="27508"></path><path d="M360.10014498 291.0654683h27.63154544v27.63154545h-27.63154544z m0-27.61681645h27.63154544V291.0654683h-27.63154544z" fill="#6F6800" p-id="27509"></path><path d="M360.10014498 235.84656437h27.63154544v27.61681645h-27.63154544z m0-27.63154544h27.63154544v27.63154544h-27.63154544z m0-27.61681646h27.63154544v27.61681646h-27.63154544z" fill="#6F6800" p-id="27510"></path><path d="M360.10014498 152.98138602h27.63154544v27.63154541h-27.63154544z m0-27.61681647h27.63154544v27.61681647h-27.63154544z" fill="#D80001" p-id="27511"></path><path d="M360.10014498 97.76248206h27.63154544v27.61681646h-27.63154544z m0-27.63154543h27.63154544v27.63154543h-27.63154544z" fill="#D80001" p-id="27512"></path><path d="M332.49805748 926.23751794h27.61681647V953.86906337h-27.61681647z" fill="#6F6800" p-id="27513"></path><path d="M332.49805748 898.63543045h27.61681647v27.61681646h-27.61681647z m0-27.63154544h27.61681647v27.63154544h-27.61681647z" fill="#6F6800" p-id="27514"></path><path d="M332.49805748 843.40179753h27.61681647v27.61681645h-27.61681647z" fill="#6F6800" p-id="27515"></path><path d="M332.49805748 815.78498107h27.61681647V843.40179753h-27.61681647z m0-27.63154544h27.61681647v27.63154544h-27.61681647z" fill="#D80001" p-id="27516"></path><path d="M332.49805748 760.55134815h27.61681647v27.61681645h-27.61681647z m0-27.61681645h27.61681647v27.61681645h-27.61681647z" fill="#D80001" p-id="27517"></path><path d="M332.49805748 705.31771523h27.61681647v27.63154543h-27.61681647z m0-27.61681647h27.61681647v27.61681647h-27.61681647z m0-27.63154543h27.61681647v27.63154543h-27.61681647z" fill="#D80001" p-id="27518"></path><path d="M332.49805748 622.46726585h27.61681647v27.61681646h-27.61681647z m0-27.61681646h27.61681647V622.46726585h-27.61681647z" fill="#D80001" p-id="27519"></path><path d="M332.49805748 567.23363292h27.61681647v27.63154544h-27.61681647z m0-27.61681646h27.61681647v27.61681646h-27.61681647z m0-27.63154544h27.61681647v27.63154544h-27.61681647z" fill="#6F6800" p-id="27520"></path><path d="M332.49805748 484.38318354h27.61681647V512h-27.61681647z m0-27.61681646h27.61681647v27.61681646h-27.61681647z" fill="#6F6800" p-id="27521"></path><path d="M332.49805748 429.14955061h27.61681647v27.63154543h-27.61681647z" fill="#6F6800" p-id="27522"></path><path d="M332.49805748 401.53273415h27.61681647v27.61681646h-27.61681647z" fill="#F7AB00" p-id="27523"></path><path d="M332.49805748 373.93064667h27.61681647v27.61681647h-27.61681647z m0-27.63154543h27.61681647v27.63154543h-27.61681647z" fill="#F7AB00" p-id="27524"></path><path d="M332.49805748 318.68228477h27.61681647v27.61681647h-27.61681647z" fill="#6F6800" p-id="27525"></path><path d="M332.49805748 291.0654683h27.61681647v27.63154545h-27.61681647z m0-27.61681645h27.61681647V291.0654683h-27.61681647z" fill="#6F6800" p-id="27526"></path><path d="M332.49805748 235.84656437h27.61681647v27.61681645h-27.61681647z m0-27.63154544h27.61681647v27.63154544h-27.61681647z m0-27.61681646h27.61681647v27.61681646h-27.61681647z" fill="#6F6800" p-id="27527"></path><path d="M332.49805748 152.98138602h27.61681647v27.63154541h-27.61681647z m0-27.61681647h27.61681647v27.61681647h-27.61681647z" fill="#D80001" p-id="27528"></path><path d="M332.49805748 97.76248206h27.61681647v27.61681646h-27.61681647z m0-27.63154543h27.61681647v27.63154543h-27.61681647z" fill="#D80001" p-id="27529"></path><path d="M304.88124103 926.23751794h27.61681645V953.86906337h-27.61681645z" fill="#6F6800" p-id="27530"></path><path d="M304.88124103 898.63543045h27.61681645v27.61681646h-27.61681645z m0-27.63154544h27.61681645v27.63154544h-27.61681645z" fill="#6F6800" p-id="27531"></path><path d="M304.88124103 843.40179753h27.61681645v27.61681645h-27.61681645z" fill="#6F6800" p-id="27532"></path><path d="M304.88124103 815.78498107h27.61681645V843.40179753h-27.61681645z m0-27.63154544h27.61681645v27.63154544h-27.61681645z" fill="#D80001" p-id="27533"></path><path d="M304.88124103 760.55134815h27.61681645v27.61681645h-27.61681645z m0-27.61681645h27.61681645v27.61681645h-27.61681645z" fill="#D80001" p-id="27534"></path><path d="M304.88124103 705.31771523h27.61681645v27.63154543h-27.61681645z" fill="#D80001" p-id="27535"></path><path d="M304.88124103 677.70089876h27.61681645v27.61681647h-27.61681645z m0-27.63154543h27.61681645v27.63154543h-27.61681645z" fill="#F7AB00" p-id="27536"></path><path d="M304.88124103 622.46726585h27.61681645v27.61681646h-27.61681645z m0-27.61681646h27.61681645V622.46726585h-27.61681645z" fill="#6F6800" p-id="27537"></path><path d="M304.88124103 567.23363292h27.61681645v27.63154544h-27.61681645z m0-27.61681646h27.61681645v27.61681646h-27.61681645z m0-27.63154544h27.61681645v27.63154544h-27.61681645z" fill="#6F6800" p-id="27538"></path><path d="M304.88124103 484.38318354h27.61681645V512h-27.61681645z m0-27.61681646h27.61681645v27.61681646h-27.61681645z" fill="#6F6800" p-id="27539"></path><path d="M304.88124103 429.14955061h27.61681645v27.63154543h-27.61681645z m0-55.21890394h27.61681645v27.61681647h-27.61681645z m0-27.63154543h27.61681645v27.63154543h-27.61681645z" fill="#6F6800" p-id="27540"></path><path d="M304.88124103 318.68228477h27.61681645v27.61681647h-27.61681645z" fill="#F7AB00" p-id="27541"></path><path d="M304.88124103 291.0654683h27.61681645v27.63154545h-27.61681645z m0-27.61681645h27.61681645V291.0654683h-27.61681645z" fill="#F7AB00" p-id="27542"></path><path d="M304.88124103 235.84656437h27.61681645v27.61681645h-27.61681645z" fill="#F7AB00" p-id="27543"></path><path d="M304.88124103 208.21501893h27.61681645v27.63154544h-27.61681645z m0-27.61681646h27.61681645v27.61681646h-27.61681645z" fill="#6F6800" p-id="27544"></path><path d="M304.88124103 152.98138602h27.61681645v27.63154541h-27.61681645z m0-27.61681647h27.61681645v27.61681647h-27.61681645z" fill="#D80001" p-id="27545"></path><path d="M277.24969559 926.23751794h27.63154544V953.86906337h-27.63154544z" fill="#6F6800" p-id="27546"></path><path d="M277.24969559 898.63543045h27.63154544v27.61681646h-27.63154544z m0-27.63154544h27.63154544v27.63154544h-27.63154544z" fill="#6F6800" p-id="27547"></path><path d="M277.24969559 843.40179753h27.63154544v27.61681645h-27.63154544z" fill="#6F6800" p-id="27548"></path><path d="M277.24969559 815.78498107h27.63154544V843.40179753h-27.63154544z m0-27.63154544h27.63154544v27.63154544h-27.63154544z" fill="#D80001" p-id="27549"></path><path d="M277.24969559 760.55134815h27.63154544v27.61681645h-27.63154544z m0-27.61681645h27.63154544v27.61681645h-27.63154544z" fill="#D80001" p-id="27550"></path><path d="M277.24969559 705.31771523h27.63154544v27.63154543h-27.63154544z" fill="#D80001" p-id="27551"></path><path d="M277.24969559 677.70089876h27.63154544v27.61681647h-27.63154544z m0-27.63154543h27.63154544v27.63154543h-27.63154544z" fill="#F7AB00" p-id="27552"></path><path d="M277.24969559 622.46726585h27.63154544v27.61681646h-27.63154544z m0-27.61681646h27.63154544V622.46726585h-27.63154544z" fill="#6F6800" p-id="27553"></path><path d="M277.24969559 567.23363292h27.63154544v27.63154544h-27.63154544z m0-27.61681646h27.63154544v27.61681646h-27.63154544z m0-27.63154544h27.63154544v27.63154544h-27.63154544z" fill="#6F6800" p-id="27554"></path><path d="M277.24969559 484.38318354h27.63154544V512h-27.63154544z m0-27.61681646h27.63154544v27.61681646h-27.63154544z" fill="#6F6800" p-id="27555"></path><path d="M277.24969559 429.14955061h27.63154544v27.63154543h-27.63154544z m0-55.21890394h27.63154544v27.61681647h-27.63154544z m0-27.63154543h27.63154544v27.63154543h-27.63154544z" fill="#6F6800" p-id="27556"></path><path d="M277.24969559 318.68228477h27.63154544v27.61681647h-27.63154544z" fill="#F7AB00" p-id="27557"></path><path d="M277.24969559 291.0654683h27.63154544v27.63154545h-27.63154544z m0-27.61681645h27.63154544V291.0654683h-27.63154544z" fill="#F7AB00" p-id="27558"></path><path d="M277.24969559 235.84656437h27.63154544v27.61681645h-27.63154544z" fill="#F7AB00" p-id="27559"></path><path d="M277.24969559 208.21501893h27.63154544v27.63154544h-27.63154544z m0-27.61681646h27.63154544v27.61681646h-27.63154544z" fill="#6F6800" p-id="27560"></path><path d="M277.24969559 152.98138602h27.63154544v27.63154541h-27.63154544z m0-27.61681647h27.63154544v27.61681647h-27.63154544z" fill="#D80001" p-id="27561"></path><path d="M249.64760811 926.23751794h27.61681646V953.86906337h-27.61681646z" fill="#6F6800" p-id="27562"></path><path d="M249.64760811 898.63543045h27.61681646v27.61681646h-27.61681646z m0-27.63154544h27.61681646v27.63154544h-27.61681646z" fill="#6F6800" p-id="27563"></path><path d="M249.64760811 843.40179753h27.61681646v27.61681645h-27.61681646z" fill="#6F6800" p-id="27564"></path><path d="M249.64760811 732.9345317h27.61681646v27.61681645h-27.61681646z" fill="#F7AB00" p-id="27565"></path><path d="M249.64760811 705.31771523h27.61681646v27.63154543h-27.61681646z m0-27.61681647h27.61681646v27.61681647h-27.61681646z m0-27.63154543h27.61681646v27.63154543h-27.61681646z" fill="#F7AB00" p-id="27566"></path><path d="M249.64760811 622.46726585h27.61681646v27.61681646h-27.61681646z m0-27.61681646h27.61681646V622.46726585h-27.61681646z" fill="#F7AB00" p-id="27567"></path><path d="M249.64760811 567.23363292h27.61681646v27.63154544h-27.61681646z m0-27.61681646h27.61681646v27.61681646h-27.61681646z m0-27.63154544h27.61681646v27.63154544h-27.61681646z" fill="#6F6800" p-id="27568"></path><path d="M249.64760811 484.38318354h27.61681646V512h-27.61681646z m0-110.45253687h27.61681646v27.61681647h-27.61681646z m0-27.63154543h27.61681646v27.63154543h-27.61681646z m0-27.61681647h27.61681646v27.61681647h-27.61681646z" fill="#6F6800" p-id="27569"></path><path d="M249.64760811 291.0654683h27.61681646v27.63154545h-27.61681646z m0-27.61681645h27.61681646V291.0654683h-27.61681646z" fill="#6F6800" p-id="27570"></path><path d="M249.64760811 235.84656437h27.61681646v27.61681645h-27.61681646z m-27.63154543 690.39095357h27.63154543V953.86906337h-27.63154543z" fill="#6F6800" p-id="27571"></path><path d="M222.01606268 898.63543045h27.63154543v27.61681646h-27.63154543z m0-27.63154544h27.63154543v27.63154544h-27.63154543z" fill="#6F6800" p-id="27572"></path><path d="M222.01606268 843.40179753h27.63154543v27.61681645h-27.63154543z" fill="#6F6800" p-id="27573"></path><path d="M222.01606268 732.9345317h27.63154543v27.61681645h-27.63154543z" fill="#F7AB00" p-id="27574"></path><path d="M222.01606268 705.31771523h27.63154543v27.63154543h-27.63154543z m0-27.61681647h27.63154543v27.61681647h-27.63154543z m0-27.63154543h27.63154543v27.63154543h-27.63154543z" fill="#F7AB00" p-id="27575"></path><path d="M222.01606268 622.46726585h27.63154543v27.61681646h-27.63154543z m0-27.61681646h27.63154543V622.46726585h-27.63154543z" fill="#F7AB00" p-id="27576"></path><path d="M222.01606268 567.23363292h27.63154543v27.63154544h-27.63154543z m0-27.61681646h27.63154543v27.61681646h-27.63154543z m0-27.63154544h27.63154543v27.63154544h-27.63154543z" fill="#6F6800" p-id="27577"></path><path d="M222.01606268 484.38318354h27.63154543V512h-27.63154543z m0-110.45253687h27.63154543v27.61681647h-27.63154543z m0-27.63154543h27.63154543v27.63154543h-27.63154543z m0-27.61681647h27.63154543v27.61681647h-27.63154543z" fill="#6F6800" p-id="27578"></path><path d="M222.01606268 291.0654683h27.63154543v27.63154545h-27.63154543z m0-27.61681645h27.63154543V291.0654683h-27.63154543z" fill="#6F6800" p-id="27579"></path><path d="M222.01606268 235.84656437h27.63154543v27.61681645h-27.63154543z m-27.6020875 690.39095357h27.61681647V953.86906337h-27.61681647z" fill="#6F6800" p-id="27580"></path><path d="M194.41397518 898.63543045h27.61681647v27.61681646h-27.61681647z" fill="#6F6800" p-id="27581"></path><path d="M194.41397518 732.9345317h27.61681647v27.61681645h-27.61681647z" fill="#F7AB00" p-id="27582"></path><path d="M194.41397518 705.31771523h27.61681647v27.63154543h-27.61681647z m0-27.61681647h27.61681647v27.61681647h-27.61681647z m0-27.63154543h27.61681647v27.63154543h-27.61681647z" fill="#F7AB00" p-id="27583"></path><path d="M194.41397518 622.46726585h27.61681647v27.61681646h-27.61681647z m0-27.61681646h27.61681647V622.46726585h-27.61681647z" fill="#F7AB00" p-id="27584"></path><path d="M194.41397518 567.23363292h27.61681647v27.63154544h-27.61681647z m0-27.61681646h27.61681647v27.61681646h-27.61681647z m-27.61681646 386.62070148h27.61681646V953.86906337h-27.61681646z" fill="#6F6800" p-id="27585"></path><path d="M166.79715872 898.63543045h27.61681646v27.61681646h-27.61681646z" fill="#6F6800" p-id="27586"></path><path d="M166.79715872 732.9345317h27.61681646v27.61681645h-27.61681646z" fill="#F7AB00" p-id="27587"></path><path d="M166.79715872 705.31771523h27.61681646v27.63154543h-27.61681646z m0-27.61681647h27.61681646v27.61681647h-27.61681646z m0-27.63154543h27.61681646v27.63154543h-27.61681646z" fill="#F7AB00" p-id="27588"></path><path d="M166.79715872 622.46726585h27.61681646v27.61681646h-27.61681646z m0-27.61681646h27.61681646V622.46726585h-27.61681646z" fill="#F7AB00" p-id="27589"></path><path d="M166.79715872 567.23363292h27.61681646v27.63154544h-27.61681646z m0-27.61681646h27.61681646v27.61681646h-27.61681646z" fill="#6F6800" p-id="27590"></path></svg>