<?xml version="1.0" standalone="no"?><!DOCTYPE svg PUBLIC "-//W3C//DTD SVG 1.1//EN" "http://www.w3.org/Graphics/SVG/1.1/DTD/svg11.dtd"><svg t="1698205943595" class="icon" viewBox="0 0 1024 1024" version="1.1" xmlns="http://www.w3.org/2000/svg" p-id="32502" xmlns:xlink="http://www.w3.org/1999/xlink" width="200" height="200"><path d="M945.23 472.615H1024v78.77h-78.77z m-78.768 472.616h78.769V1024h-78.77z m0-78.77h78.769v78.77h-78.77z m0-78.769h78.769v78.77h-78.77z m0-78.769h78.769v78.77h-78.77z m0-78.77h78.769v78.77h-78.77z m0-78.768h78.769v78.769h-78.77z m0-78.77h78.769v78.77h-78.77z m0-78.769h78.769v78.77h-78.77z m-78.77 551.385h78.77V1024h-78.77z" fill="#1E2028" p-id="32503"></path><path d="M787.692 866.462h78.77v78.769h-78.77z m0-78.77h78.77v78.77h-78.77z m0-78.769h78.77v78.77h-78.77z m0-78.77h78.77v78.77h-78.77z m0-78.768h78.77v78.769h-78.77z" fill="#FF9343" p-id="32504"></path><path d="M787.692 472.615h78.77v78.77h-78.77z" fill="#1E2028" p-id="32505"></path><path d="M787.692 393.846h78.77v78.77h-78.77z" fill="#AF1441" p-id="32506"></path><path d="M787.692 315.077h78.77v78.77h-78.77z m0-78.77h78.77v78.77h-78.77z m0-78.769h78.77v78.77h-78.77z m-78.769 787.693h78.77V1024h-78.77z" fill="#1E2028" p-id="32507"></path><path d="M708.923 866.462h78.77v78.769h-78.77z m0-78.77h78.77v78.77h-78.77z m0-78.769h78.77v78.77h-78.77z m0-78.77h78.77v78.77h-78.77z" fill="#FFDD4D" p-id="32508"></path><path d="M708.923 551.385h78.77v78.769h-78.77z" fill="#FF9343" p-id="32509"></path><path d="M708.923 472.615h78.77v78.77h-78.77z" fill="#1E2028" p-id="32510"></path><path d="M708.923 393.846h78.77v78.77h-78.77z" fill="#FF1A51" p-id="32511"></path><path d="M708.923 315.077h78.77v78.77h-78.77z" fill="#AF1441" p-id="32512"></path><path d="M708.923 236.308h78.77v78.769h-78.77z m-78.77 708.923h78.77V1024h-78.77z" fill="#1E2028" p-id="32513"></path><path d="M630.154 866.462h78.77v78.769h-78.77z m0-78.77h78.77v78.77h-78.77z m0-78.769h78.77v78.77h-78.77z m0-78.77h78.77v78.77h-78.77z" fill="#FFDD4D" p-id="32514"></path><path d="M630.154 551.385h78.77v78.769h-78.77z" fill="#FF9343" p-id="32515"></path><path d="M630.154 472.615h78.77v78.77h-78.77z" fill="#1E2028" p-id="32516"></path><path d="M630.154 393.846h78.77v78.77h-78.77z m0-78.77h78.77v78.77h-78.77z" fill="#FF1A51" p-id="32517"></path><path d="M630.154 236.308h78.77v78.769h-78.77z" fill="#AF1441" p-id="32518"></path><path d="M630.154 157.538h78.77v78.77h-78.77z m-78.77 787.693h78.77V1024h-78.77z" fill="#1E2028" p-id="32519"></path><path d="M551.385 866.462h78.769v78.769h-78.77z m0-78.77h78.769v78.77h-78.77z m0-78.769h78.769v78.77h-78.77z m0-78.77h78.769v78.77h-78.77z" fill="#FFDD4D" p-id="32520"></path><path d="M551.385 551.385h78.769v78.769h-78.77z" fill="#FF9343" p-id="32521"></path><path d="M551.385 472.615h78.769v78.77h-78.77z" fill="#1E2028" p-id="32522"></path><path d="M551.385 393.846h78.769v78.77h-78.77z m0-78.77h78.769v78.77h-78.77z m0-78.768h78.769v78.769h-78.77z" fill="#FF1A51" p-id="32523"></path><path d="M551.385 157.538h78.769v78.77h-78.77z" fill="#AF1441" p-id="32524"></path><path d="M551.385 78.77h78.769v78.768h-78.77z m-78.77 866.46h78.77V1024h-78.77z" fill="#1E2028" p-id="32525"></path><path d="M472.615 866.462h78.77v78.769h-78.77z m0-78.77h78.77v78.77h-78.77z m0-78.769h78.77v78.77h-78.77z m0-78.77h78.77v78.77h-78.77z" fill="#FFDD4D" p-id="32526"></path><path d="M472.615 551.385h78.77v78.769h-78.77z" fill="#FF9343" p-id="32527"></path><path d="M472.615 472.615h78.77v78.77h-78.77z" fill="#1E2028" p-id="32528"></path><path d="M472.615 393.846h78.77v78.77h-78.77z m0-78.77h78.77v78.77h-78.77z m0-78.768h78.77v78.769h-78.77z m0-78.77h78.77v78.77h-78.77z" fill="#FF1A51" p-id="32529"></path><path d="M472.615 78.77h78.77v78.768h-78.77z" fill="#F4608A" p-id="32530"></path><path d="M472.615 0h78.77v78.77h-78.77z m-78.769 945.23h78.77V1024h-78.77z m0-78.768h78.77v78.769h-78.77z m0-78.77h78.77v78.77h-78.77z m0-78.769h78.77v78.77h-78.77z" fill="#1E2028" p-id="32531"></path><path d="M393.846 630.154h78.77v78.77h-78.77z" fill="#FFDD4D" p-id="32532"></path><path d="M393.846 551.385h78.77v78.769h-78.77z" fill="#FF9343" p-id="32533"></path><path d="M393.846 472.615h78.77v78.77h-78.77z" fill="#1E2028" p-id="32534"></path><path d="M393.846 393.846h78.77v78.77h-78.77z m0-78.77h78.77v78.77h-78.77z m0-78.768h78.77v78.769h-78.77z" fill="#FF1A51" p-id="32535"></path><path d="M393.846 157.538h78.77v78.77h-78.77z" fill="#F4608A" p-id="32536"></path><path d="M393.846 78.77h78.77v78.768h-78.77z m-78.77 866.46h78.77V1024h-78.77z" fill="#1E2028" p-id="32537"></path><path d="M315.077 866.462h78.77v78.769h-78.77z m0-78.77h78.77v78.77h-78.77z m0-78.769h78.77v78.77h-78.77z m0-78.77h78.77v78.77h-78.77z" fill="#FFDD4D" p-id="32538"></path><path d="M315.077 551.385h78.77v78.769h-78.77z" fill="#FF9343" p-id="32539"></path><path d="M315.077 472.615h78.77v78.77h-78.77z" fill="#1E2028" p-id="32540"></path><path d="M315.077 393.846h78.77v78.77h-78.77z m0-78.77h78.77v78.77h-78.77z" fill="#FF1A51" p-id="32541"></path><path d="M315.077 236.308h78.77v78.769h-78.77z" fill="#F4608A" p-id="32542"></path><path d="M315.077 157.538h78.77v78.77h-78.77z m-78.77 787.693h78.77V1024h-78.77z" fill="#1E2028" p-id="32543"></path><path d="M236.308 866.462h78.769v78.769h-78.77z m0-78.77h78.769v78.77h-78.77z m0-78.769h78.769v78.77h-78.77z m0-78.77h78.769v78.77h-78.77z" fill="#FFDD4D" p-id="32544"></path><path d="M236.308 551.385h78.769v78.769h-78.77z" fill="#FF9343" p-id="32545"></path><path d="M236.308 472.615h78.769v78.77h-78.77z" fill="#1E2028" p-id="32546"></path><path d="M236.308 393.846h78.769v78.77h-78.77z" fill="#FF1A51" p-id="32547"></path><path d="M236.308 315.077h78.769v78.77h-78.77z" fill="#F4608A" p-id="32548"></path><path d="M236.308 236.308h78.769v78.769h-78.77z m-78.77 708.923h78.77V1024h-78.77z" fill="#1E2028" p-id="32549"></path><path d="M157.538 866.462h78.77v78.769h-78.77z m0-78.77h78.77v78.77h-78.77z m0-78.769h78.77v78.77h-78.77z m0-78.77h78.77v78.77h-78.77z" fill="#FFF1B6" p-id="32550"></path><path d="M157.538 551.385h78.77v78.769h-78.77z" fill="#FF9343" p-id="32551"></path><path d="M157.538 472.615h78.77v78.77h-78.77z" fill="#1E2028" p-id="32552"></path><path d="M157.538 393.846h78.77v78.77h-78.77z" fill="#F4608A" p-id="32553"></path><path d="M157.538 315.077h78.77v78.77h-78.77zM78.77 945.23h78.77V1024h-78.77z m0-78.77h78.77v78.77h-78.77z m0-78.769h78.77v78.77h-78.77z m0-78.769h78.77v78.77h-78.77z m0-78.77h78.77v78.77h-78.77z m0-78.768h78.77v78.769h-78.77z m0-78.77h78.77v78.77h-78.77z m0-78.769h78.77v78.77h-78.77zM0 472.616h78.77v78.769H0z" fill="#1E2028" p-id="32554"></path></svg>