<?xml version="1.0" standalone="no"?><!DOCTYPE svg PUBLIC "-//W3C//DTD SVG 1.1//EN" "http://www.w3.org/Graphics/SVG/1.1/DTD/svg11.dtd"><svg t="1698219422433" class="icon" viewBox="0 0 1024 1024" version="1.1" xmlns="http://www.w3.org/2000/svg" p-id="43595" xmlns:xlink="http://www.w3.org/1999/xlink" width="200" height="200"><path d="M945.230769 393.846154h78.769231v78.769231h-78.769231zM945.230769 315.076923h78.769231v78.769231h-78.769231zM866.461538 472.615385h78.769231v78.76923h-78.769231z" fill="#1E2028" p-id="43596"></path><path d="M866.461538 393.846154h78.769231v78.769231h-78.769231zM866.461538 315.076923h78.769231v78.769231h-78.769231z" fill="#38B269" p-id="43597"></path><path d="M866.461538 236.307692h78.769231v78.769231h-78.769231zM787.692308 551.384615h78.76923v78.769231h-78.76923z" fill="#1E2028" p-id="43598"></path><path d="M787.692308 472.615385h78.76923v78.76923h-78.76923z" fill="#38B269" p-id="43599"></path><path d="M787.692308 393.846154h78.76923v78.769231h-78.76923z" fill="#1E2028" p-id="43600"></path><path d="M787.692308 315.076923h78.76923v78.769231h-78.76923z" fill="#60EF9A" p-id="43601"></path><path d="M787.692308 236.307692h78.76923v78.769231h-78.76923z" fill="#38B269" p-id="43602"></path><path d="M787.692308 157.538462h78.76923v78.76923h-78.76923zM708.923077 630.153846h78.769231v78.769231h-78.769231z" fill="#1E2028" p-id="43603"></path><path d="M708.923077 551.384615h78.769231v78.769231h-78.769231z" fill="#38B269" p-id="43604"></path><path d="M708.923077 472.615385h78.769231v78.76923h-78.769231z" fill="#60EF9A" p-id="43605"></path><path d="M708.923077 393.846154h78.769231v78.769231h-78.769231z" fill="#1E2028" p-id="43606"></path><path d="M708.923077 315.076923h78.769231v78.769231h-78.769231zM708.923077 236.307692h78.769231v78.769231h-78.769231z" fill="#60EF9A" p-id="43607"></path><path d="M708.923077 157.538462h78.769231v78.76923h-78.769231z" fill="#38B269" p-id="43608"></path><path d="M708.923077 78.769231h78.769231v78.769231h-78.769231zM630.153846 708.923077h78.769231v78.769231h-78.769231z" fill="#1E2028" p-id="43609"></path><path d="M630.153846 630.153846h78.769231v78.769231h-78.769231z" fill="#38B269" p-id="43610"></path><path d="M630.153846 551.384615h78.769231v78.769231h-78.769231zM630.153846 472.615385h78.769231v78.76923h-78.769231z" fill="#60EF9A" p-id="43611"></path><path d="M630.153846 393.846154h78.769231v78.769231h-78.769231z" fill="#1E2028" p-id="43612"></path><path d="M630.153846 315.076923h78.769231v78.769231h-78.769231z" fill="#60EF9A" p-id="43613"></path><path d="M630.153846 236.307692h78.769231v78.769231h-78.769231z" fill="#1E2028" p-id="43614"></path><path d="M630.153846 157.538462h78.769231v78.76923h-78.769231z" fill="#60EF9A" p-id="43615"></path><path d="M630.153846 78.769231h78.769231v78.769231h-78.769231zM551.384615 787.692308h78.769231v78.76923h-78.769231z" fill="#1E2028" p-id="43616"></path><path d="M551.384615 708.923077h78.769231v78.769231h-78.769231z" fill="#38B269" p-id="43617"></path><path d="M551.384615 630.153846h78.769231v78.769231h-78.769231zM551.384615 551.384615h78.769231v78.769231h-78.769231zM551.384615 472.615385h78.769231v78.76923h-78.769231z" fill="#60EF9A" p-id="43618"></path><path d="M551.384615 393.846154h78.769231v78.769231h-78.769231zM551.384615 315.076923h78.769231v78.769231h-78.769231z" fill="#1E2028" p-id="43619"></path><path d="M551.384615 236.307692h78.769231v78.769231h-78.769231zM551.384615 157.538462h78.769231v78.76923h-78.769231z" fill="#60EF9A" p-id="43620"></path><path d="M551.384615 78.769231h78.769231v78.769231h-78.769231zM472.615385 866.461538h78.76923v78.769231h-78.76923z" fill="#1E2028" p-id="43621"></path><path d="M472.615385 787.692308h78.76923v78.76923h-78.76923z" fill="#38B269" p-id="43622"></path><path d="M472.615385 708.923077h78.76923v78.769231h-78.76923zM472.615385 630.153846h78.76923v78.769231h-78.76923zM472.615385 551.384615h78.76923v78.769231h-78.76923zM472.615385 472.615385h78.76923v78.76923h-78.76923zM472.615385 393.846154h78.76923v78.769231h-78.76923z" fill="#1E2028" p-id="43623"></path><path d="M472.615385 315.076923h78.76923v78.769231h-78.76923zM472.615385 236.307692h78.76923v78.769231h-78.76923zM472.615385 157.538462h78.76923v78.76923h-78.76923z" fill="#60EF9A" p-id="43624"></path><path d="M472.615385 78.769231h78.76923v78.769231h-78.76923zM393.846154 787.692308h78.769231v78.76923h-78.769231z" fill="#1E2028" p-id="43625"></path><path d="M393.846154 708.923077h78.769231v78.769231h-78.769231z" fill="#AAF2C7" p-id="43626"></path><path d="M393.846154 630.153846h78.769231v78.769231h-78.769231zM393.846154 551.384615h78.769231v78.769231h-78.769231zM393.846154 472.615385h78.769231v78.76923h-78.769231z" fill="#60EF9A" p-id="43627"></path><path d="M393.846154 393.846154h78.769231v78.769231h-78.769231zM393.846154 315.076923h78.769231v78.769231h-78.769231z" fill="#1E2028" p-id="43628"></path><path d="M393.846154 236.307692h78.769231v78.769231h-78.769231zM393.846154 157.538462h78.769231v78.76923h-78.769231z" fill="#60EF9A" p-id="43629"></path><path d="M393.846154 78.769231h78.769231v78.769231h-78.769231zM315.076923 708.923077h78.769231v78.769231h-78.769231z" fill="#1E2028" p-id="43630"></path><path d="M315.076923 630.153846h78.769231v78.769231h-78.769231z" fill="#AAF2C7" p-id="43631"></path><path d="M315.076923 551.384615h78.769231v78.769231h-78.769231zM315.076923 472.615385h78.769231v78.76923h-78.769231z" fill="#60EF9A" p-id="43632"></path><path d="M315.076923 393.846154h78.769231v78.769231h-78.769231z" fill="#1E2028" p-id="43633"></path><path d="M315.076923 315.076923h78.769231v78.769231h-78.769231z" fill="#60EF9A" p-id="43634"></path><path d="M315.076923 236.307692h78.769231v78.769231h-78.769231z" fill="#1E2028" p-id="43635"></path><path d="M315.076923 157.538462h78.769231v78.76923h-78.769231z" fill="#60EF9A" p-id="43636"></path><path d="M315.076923 78.769231h78.769231v78.769231h-78.769231zM236.307692 630.153846h78.769231v78.769231h-78.769231z" fill="#1E2028" p-id="43637"></path><path d="M236.307692 551.384615h78.769231v78.769231h-78.769231z" fill="#AAF2C7" p-id="43638"></path><path d="M236.307692 472.615385h78.769231v78.76923h-78.769231z" fill="#60EF9A" p-id="43639"></path><path d="M236.307692 393.846154h78.769231v78.769231h-78.769231z" fill="#1E2028" p-id="43640"></path><path d="M236.307692 315.076923h78.769231v78.769231h-78.769231z" fill="#60EF9A" p-id="43641"></path><path d="M236.307692 236.307692h78.769231v78.769231h-78.769231z" fill="#FFFFFF" p-id="43642"></path><path d="M236.307692 157.538462h78.769231v78.76923h-78.769231z" fill="#AAF2C7" p-id="43643"></path><path d="M236.307692 78.769231h78.769231v78.769231h-78.769231zM157.538462 551.384615h78.76923v78.769231H157.538462z" fill="#1E2028" p-id="43644"></path><path d="M157.538462 472.615385h78.76923v78.76923H157.538462z" fill="#AAF2C7" p-id="43645"></path><path d="M157.538462 393.846154h78.76923v78.769231H157.538462z" fill="#1E2028" p-id="43646"></path><path d="M157.538462 315.076923h78.76923v78.769231H157.538462z" fill="#FFFFFF" p-id="43647"></path><path d="M157.538462 236.307692h78.76923v78.769231H157.538462z" fill="#AAF2C7" p-id="43648"></path><path d="M157.538462 157.538462h78.76923v78.76923H157.538462zM78.769231 472.615385h78.769231v78.76923H78.769231z" fill="#1E2028" p-id="43649"></path><path d="M78.769231 393.846154h78.769231v78.769231H78.769231zM78.769231 315.076923h78.769231v78.769231H78.769231z" fill="#AAF2C7" p-id="43650"></path><path d="M78.769231 236.307692h78.769231v78.769231H78.769231zM0 393.846154h78.769231v78.769231H0zM0 315.076923h78.769231v78.769231H0z" fill="#1E2028" p-id="43651"></path></svg>