<?xml version="1.0" standalone="no"?><!DOCTYPE svg PUBLIC "-//W3C//DTD SVG 1.1//EN" "http://www.w3.org/Graphics/SVG/1.1/DTD/svg11.dtd"><svg t="1698219399160" class="icon" viewBox="0 0 1024 1024" version="1.1" xmlns="http://www.w3.org/2000/svg" p-id="37776" xmlns:xlink="http://www.w3.org/1999/xlink" width="200" height="200"><path d="M857 242H677v-60H317v60H137v420h60v120h420v60h180V722h60z" fill="#FFD42C" p-id="37777"></path><path d="M317 122h360v60H317zM317 782h300v60H317zM197 182h120v60H197zM197 722h120v60H197zM677 182h120v60H677zM137 242h60v60h-60zM137 662h60v60h-60zM77 302h60v360H77zM797 242h60v60h-60zM797 662h60v60h-60zM737 722h60v60h-60zM857 842v-60h-60v60H617v60h330v-60zM857 302h60v360h-60z" fill="#050000" p-id="37778"></path><path d="M317 242h60v60h-60zM257 302h60v60h-60z" fill="#FFFFFF" p-id="37779"></path></svg>